<?xml version="1.0" encoding="UTF-8"?>
<svg version="1.1" xmlns="http://www.w3.org/2000/svg" width="300" height="114">
<path d="M0 0 C0.94213978 -0.00048214 1.88427956 -0.00096428 2.85496902 -0.00146103 C5.90272128 0.00152306 8.94949327 0.03197565 11.99707031 0.06347656 C13.87938974 0.06935818 15.76171569 0.0734386 17.64404297 0.07568359 C24.62119356 0.09664961 31.59820408 0.15249457 38.57519531 0.20410156 C61.96394531 0.32785156 61.96394531 0.32785156 85.82519531 0.45410156 C85.82519531 38.07410156 85.82519531 75.69410156 85.82519531 114.45410156 C51.41983843 114.65561673 51.41983843 114.65561673 37.01464844 114.69824219 C27.06375258 114.72792345 17.11306823 114.76283709 7.16235352 114.83129883 C-0.08437073 114.88113312 -7.33092357 114.91339235 -14.5778144 114.92454404 C-18.41513112 114.93106287 -22.25195749 114.94638375 -26.08911705 114.98275185 C-29.70154953 115.01671233 -33.31329013 115.02715481 -36.92586708 115.01963997 C-38.88234916 115.02166953 -40.83875603 115.04856465 -42.79504395 115.07620239 C-52.36093442 115.01991134 -52.36093442 115.01991134 -55.45462036 112.09048462 C-58.74769534 107.04346324 -58.17742372 102.2340383 -57.17480469 96.45410156 C-55.28194203 90.64567091 -52.31315178 85.28595013 -49.48730469 79.89160156 C-48.70135432 78.34347466 -47.91843586 76.79380511 -47.13842773 75.24267578 C-45.95459149 72.88938058 -44.76907259 70.53714998 -43.57380676 68.18963623 C-40.03229893 61.23148038 -36.73245233 54.18073485 -33.48730469 47.07910156 C-29.22024253 37.83065839 -24.92684787 28.59535094 -20.54013062 19.40301514 C-19.92854446 18.11836838 -19.31992993 16.83230208 -18.71450806 15.54473877 C-17.87485303 13.76063705 -17.02311396 11.98223773 -16.17089844 10.20410156 C-15.44664673 8.68042969 -15.44664673 8.68042969 -14.70776367 7.12597656 C-10.77119202 0.26471838 -7.46723911 -0.1227404 0 0 Z " fill="#EB043B" transform="translate(57.1748046875,-0.4541015625)"/>
<path d="M0 0 C34.40535688 -0.20151517 34.40535688 -0.20151517 48.81054688 -0.24414062 C58.76144273 -0.27382189 68.71212708 -0.30873553 78.6628418 -0.37719727 C85.90956604 -0.42703156 93.15611888 -0.45929079 100.40300971 -0.47044247 C104.24032643 -0.47696131 108.0771528 -0.49228219 111.91431236 -0.52865028 C115.52674484 -0.56261077 119.13848544 -0.57305324 122.75106239 -0.56553841 C124.70754448 -0.56756797 126.66395134 -0.59446308 128.62023926 -0.62210083 C138.18591433 -0.56581105 138.18591433 -0.56581105 141.27651978 2.37020874 C144.18889263 6.81408489 144.22021402 10.76757898 143.46820068 15.97235107 C141.70363217 23.61421401 137.40131175 30.66050637 133.8125 37.5625 C132.88643632 39.39091516 131.96336612 41.22084937 131.04321289 43.05224609 C129.66217086 45.80001318 128.27945306 48.54674919 126.8868866 51.28869629 C123.0603422 58.82480276 119.45208927 66.43868878 115.9375 74.125 C114.92752696 76.31530878 113.91712253 78.50541871 112.90625 80.6953125 C112.42800781 81.73333008 111.94976562 82.77134766 111.45703125 83.84082031 C108.9687758 89.23593182 106.46598681 94.62362069 103.9375 100 C103.49591553 100.95664551 103.05433105 101.91329102 102.59936523 102.89892578 C102.18372314 103.77790527 101.76808105 104.65688477 101.33984375 105.5625 C100.98269287 106.32691406 100.62554199 107.09132813 100.25756836 107.87890625 C98.67073698 110.55535569 97.50822488 112.0940062 95 114 C91.943784 114.58578672 88.9282617 114.50510724 85.82519531 114.45410156 C84.41198565 114.45482477 84.41198565 114.45482477 82.97022629 114.45556259 C79.92247404 114.4525785 76.87570204 114.42212592 73.828125 114.390625 C71.94580557 114.38474339 70.06347962 114.38066296 68.18115234 114.37841797 C61.20400175 114.35745195 54.22699123 114.30160699 47.25 114.25 C23.86125 114.12625 23.86125 114.12625 0 114 C0 76.38 0 38.76 0 0 Z " fill="#0085FF" transform="translate(157,0)"/>
</svg>
