<?xml version="1.0" encoding="UTF-8"?>
<svg version="1.1" xmlns="http://www.w3.org/2000/svg" width="1792" height="793">
<path d="M0 0 C0.83273437 0.41765625 1.66546875 0.8353125 2.5234375 1.265625 C19.40507563 10.53188694 31.43026051 26.75473465 36.9296875 45.1015625 C43.33747935 69.69527788 41.66763131 96.7069641 29.265625 119.13671875 C17.77141466 137.77666604 0.59686974 149.19821242 -20.6875 154.25 C-45.26267005 158.43986506 -70.94250963 155.46291521 -91.82421875 141.05078125 C-94.30573629 139.11648963 -96.66416232 137.10715427 -99 135 C-99.69609375 134.39671875 -100.3921875 133.7934375 -101.109375 133.171875 C-114.47939482 120.83829083 -121.93973594 101.09984232 -123.203125 83.10717773 C-123.30324602 80.00567877 -123.32893462 76.9155473 -123.3125 73.8125 C-123.30758545 72.71260742 -123.3026709 71.61271484 -123.29760742 70.47949219 C-122.98389876 48.60675934 -115.73798177 28.4318783 -100.54296875 12.34765625 C-74.37560117 -11.80992887 -31.48599208 -16.17105333 0 0 Z M-61.03125 33.1171875 C-70.30002924 41.98137717 -72.74501885 55.70427086 -73.203125 68.05859375 C-73.47645289 83.2507807 -72.63833352 99.80027756 -62.3359375 111.96484375 C-55.45214619 118.39285892 -48.0407793 119.48165616 -38.94042969 119.42407227 C-31.58601757 119.16782398 -26.7460182 117.31885981 -21.1875 112.625 C-9.73521092 98.88225311 -9.02154629 80.42273118 -10.27734375 63.1953125 C-11.28708633 52.18531054 -13.58645536 40.82655315 -22 33 C-33.30572594 25.07542574 -49.95221221 24.80790916 -61.03125 33.1171875 Z " fill="#66A5DA" transform="translate(1255,316)"/>
<path d="M0 0 C3.10075232 2.64527458 6.03493708 5.38911986 8.8125 8.375 C9.81216797 9.33212891 9.81216797 9.33212891 10.83203125 10.30859375 C25.68441438 25.31279 31.09077382 47.83577123 31.05908203 68.40600586 C30.71193973 90.77766278 23.81764547 111.48559042 8.3046875 127.96484375 C-8.90041171 144.60363092 -30.65694489 150.61273347 -54.1875 150.375 C-75.79500721 149.56882178 -95.44156934 142.56763295 -111.1875 127.375 C-130.65952496 106.10404382 -133.33416555 81.092249 -132.1875 53.375 C-130.61542979 34.8337156 -121.23999348 17.24008272 -107.78515625 4.5546875 C-79.36637016 -19.29145181 -30.22330876 -22.81660974 0 0 Z M-73.71484375 30.8671875 C-83.98242006 43.41297983 -83.33737529 64.35418994 -81.98535156 79.6640625 C-80.69422486 90.38285022 -77.99980431 101.99059542 -69.1875 109 C-61.30228741 114.42108365 -52.32689677 114.07321053 -43.1875 113.375 C-36.59067329 112.02661886 -31.8613933 109.12758952 -27.71875 103.8125 C-17.42302161 87.42338133 -17.64365387 65.76633942 -21.1875 47.375 C-23.15787162 38.75721677 -26.21284165 32.04115962 -33.1875 26.375 C-46.61037271 18.59362452 -62.55511439 19.9643317 -73.71484375 30.8671875 Z " fill="#65A5DA" transform="translate(567.1875,321.625)"/>
<path d="M0 0 C12.95321766 10.44984758 19.02595033 25.57168257 20.82134247 41.7752037 C21.5440662 50.77517737 21.23670588 59.87410337 21.1953125 68.89453125 C21.19157639 71.29733665 21.18873225 73.70014358 21.18673706 76.10295105 C21.17914767 82.38778993 21.15954006 88.67253448 21.1373291 94.95733643 C21.11676893 101.38625819 21.1077137 107.81519537 21.09765625 114.24414062 C21.07628928 126.82946702 21.04260225 139.41472846 21 152 C14.18238106 152.0252689 7.36477411 152.04283244 0.54711914 152.05493164 C-1.77417451 152.05997333 -4.09546497 152.06680651 -6.41674805 152.07543945 C-9.74528795 152.08751225 -13.07378602 152.09322979 -16.40234375 152.09765625 C-17.96951393 152.10539818 -17.96951393 152.10539818 -19.56834412 152.11329651 C-20.52926468 152.11337204 -21.49018524 152.11344757 -22.48022461 152.11352539 C-23.33071884 152.115746 -24.18121307 152.11796661 -25.05747986 152.12025452 C-27 152 -27 152 -28 151 C-28.09890273 149.60131482 -28.12907735 148.19769279 -28.13130188 146.79551697 C-28.13531006 145.88856079 -28.13931824 144.98160461 -28.14344788 144.04716492 C-28.14291916 143.04409805 -28.14239044 142.04103119 -28.1418457 141.00756836 C-28.14532013 139.95713348 -28.14879456 138.90669861 -28.15237427 137.82443237 C-28.15974798 135.5337725 -28.16508471 133.24310539 -28.16866493 130.95243645 C-28.17581056 127.32496679 -28.19146443 123.69763398 -28.21000671 120.07020569 C-28.2625545 109.75295939 -28.31043036 99.43578532 -28.32592773 89.1184082 C-28.33601879 82.81475348 -28.36537821 76.51143856 -28.40724754 70.20791817 C-28.41955222 67.80584854 -28.42467978 65.40373089 -28.42244911 63.00163078 C-28.42009192 59.63345101 -28.44229808 56.26624183 -28.4699707 52.89819336 C-28.46336929 51.90929611 -28.45676788 50.92039886 -28.44996643 49.90153503 C-28.54953847 42.50054951 -30.03909837 36.88498107 -35.4375 31.625 C-42.10623351 27.39604704 -48.71843677 26.97637455 -56.3984375 28.46484375 C-61.56327282 29.99617212 -65.70119879 32.55892816 -70.0546875 35.6953125 C-72 37 -72 37 -75 38 C-74.99907821 38.58144996 -74.99815641 39.16289991 -74.99720669 39.76196957 C-74.9751506 53.89074246 -74.95858803 68.01951278 -74.94818783 82.14829922 C-74.94302507 88.98078974 -74.93598277 95.81326879 -74.92456055 102.64575195 C-74.91355293 109.23335305 -74.90772377 115.82094531 -74.90512276 122.40855598 C-74.903268 124.92808279 -74.89964643 127.44760891 -74.89426994 129.96713066 C-74.88706324 133.48257765 -74.8860089 136.99797461 -74.88647461 140.51342773 C-74.88287933 141.56646591 -74.87928406 142.61950409 -74.87557983 143.70445251 C-74.8769545 144.65662659 -74.87832916 145.60880066 -74.87974548 146.58982849 C-74.87882369 147.42220756 -74.8779019 148.25458662 -74.87695217 149.11218929 C-75 151 -75 151 -76 152 C-91.84 152 -107.68 152 -124 152 C-124 99.53 -124 47.06 -124 -7 C-89 -7 -89 -7 -83 -3 C-81.5390625 -0.203125 -81.5390625 -0.203125 -80.625 2.75 C-80.30789063 3.73484375 -79.99078125 4.7196875 -79.6640625 5.734375 C-79.44492187 6.48203125 -79.22578125 7.2296875 -79 8 C-78.41734375 7.49210937 -77.8346875 6.98421875 -77.234375 6.4609375 C-55.69775637 -11.62169513 -24.0482407 -16.93593422 0 0 Z " fill="#65A5DA" transform="translate(822,317)"/>
<path d="M0 0 C1.49164673 -0.00945648 1.49164673 -0.00945648 3.01342773 -0.019104 C4.09052002 -0.01505554 5.1676123 -0.01100708 6.27734375 -0.00683594 C7.37957275 -0.00874939 8.48180176 -0.01066284 9.61743164 -0.01263428 C11.95101143 -0.01399706 14.28459878 -0.01029416 16.61816406 -0.00195312 C20.20004222 0.00874485 23.78141878 -0.00184552 27.36328125 -0.01464844 C29.6263032 -0.01332686 31.88932483 -0.0107645 34.15234375 -0.00683594 C35.76798218 -0.01290863 35.76798218 -0.01290863 37.41625977 -0.019104 C38.41069092 -0.01279968 39.40512207 -0.00649536 40.4296875 0 C41.3074585 0.00159119 42.18522949 0.00318237 43.08959961 0.00482178 C45.21484375 0.25878906 45.21484375 0.25878906 47.21484375 2.25878906 C47.46373272 4.70909309 47.46373272 4.70909309 47.46208191 7.85842896 C47.4662764 9.04969391 47.47047089 10.24095886 47.47479248 11.46832275 C47.46917297 12.78250183 47.46355347 14.09668091 47.45776367 15.45068359 C47.45883629 16.84372039 47.46077468 18.23675675 47.46351624 19.62979126 C47.4683772 23.42405831 47.4606884 27.21820828 47.45056319 31.01246119 C47.44177863 34.99283369 47.44354038 38.97320254 47.44392395 42.95358276 C47.44298591 49.65380811 47.43429205 56.35398832 47.4206543 63.05419922 C47.405017 70.76447164 47.39965307 78.47469432 47.40038985 86.18498147 C47.40107029 94.4215614 47.39409131 102.65812251 47.38494325 110.89469671 C47.38282759 113.24980715 47.38210416 115.60491449 47.38170433 117.96002579 C47.38068542 121.69465014 47.37446557 125.42923413 47.36453819 129.16384506 C47.36030979 131.15984431 47.36077723 133.15585186 47.36148071 135.15185547 C47.27311783 160.65064979 47.27311783 160.65064979 44.15234375 171.75878906 C43.93755371 172.54431152 43.72276367 173.32983398 43.50146484 174.13916016 C38.04933819 192.89855643 27.4388098 208.95706109 10.08984375 218.50878906 C-12.14119713 230.23870693 -37.77674613 228.60090956 -61.78515625 224.25878906 C-62.77515625 223.92878906 -63.76515625 223.59878906 -64.78515625 223.25878906 C-65.20611153 214.99559273 -64.59060254 206.95786222 -63.59765625 198.75878906 C-63.49670654 197.80343262 -63.39575684 196.84807617 -63.29174805 195.86376953 C-62.70231958 191.36853285 -62.21735142 188.82506458 -59.41796875 185.15722656 C-56.97719047 183.39725884 -55.78567909 182.58806877 -52.84765625 182.38378906 C-52.21988281 182.32449219 -51.59210938 182.26519531 -50.9453125 182.20410156 C-48.78515625 182.25878906 -48.78515625 182.25878906 -45.9296875 182.73925781 C-36.81302833 184.24548846 -27.53820225 183.93462441 -19.09765625 180.00878906 C-12.66168818 175.13832674 -9.67003792 169.25312852 -8.28442383 161.43261719 C-7.50500512 155.73533345 -7.39668204 149.99629415 -7.21875 144.25488281 C-7.19744963 143.57282713 -7.17614925 142.89077145 -7.15420341 142.18804741 C-6.67978556 126.26770359 -6.72510941 110.34477551 -6.7578125 94.41894531 C-6.75909889 93.75366554 -6.76038527 93.08838576 -6.76171064 92.402946 C-6.78620499 79.89313509 -6.823534 67.38336041 -6.87265247 54.87362236 C-6.90006362 47.89137398 -6.9218749 40.90916115 -6.9326629 33.92686552 C-6.93811551 30.63635124 -6.94866934 27.34597394 -6.9660511 24.05549812 C-6.9851308 20.42408326 -6.99214116 16.79283494 -6.99633789 13.16137695 C-7.00509949 12.07962189 -7.01386108 10.99786682 -7.02288818 9.8833313 C-7.02158401 8.90174545 -7.02027985 7.92015961 -7.01893616 6.90882874 C-7.02207856 6.05386338 -7.02522097 5.19889803 -7.0284586 4.31802464 C-6.50671786 -0.09782706 -3.75902537 0.0068142 0 0 Z " fill="#68A6DA" transform="translate(366.78515625,244.7412109375)"/>
<path d="M0 0 C2.16993713 -0.36749268 2.16993713 -0.36749268 4.89282227 -0.35644531 C6.41934166 -0.36094696 6.41934166 -0.36094696 7.97669983 -0.36553955 C9.62985451 -0.34701935 9.62985451 -0.34701935 11.31640625 -0.328125 C12.44320297 -0.32625183 13.56999969 -0.32437866 14.73094177 -0.32244873 C17.1158239 -0.31571764 19.5006948 -0.30178237 21.88549805 -0.28125 C25.55072193 -0.2501001 29.21551627 -0.24028168 32.88085938 -0.234375 C35.19271362 -0.22520538 37.50456345 -0.21482975 39.81640625 -0.203125 C40.9205336 -0.19887512 42.02466095 -0.19462524 43.1622467 -0.19024658 C44.17677414 -0.18063904 45.19130157 -0.17103149 46.23657227 -0.16113281 C47.13432877 -0.15430481 48.03208527 -0.14747681 48.95704651 -0.14044189 C51 0 51 0 52 1 C52.1032125 2.9314351 52.13522409 4.86668896 52.14044189 6.8008728 C52.14615204 8.062155 52.15186218 9.32343719 52.15774536 10.62294006 C52.15899097 12.03427114 52.16011601 13.44560233 52.16113281 14.85693359 C52.16575925 16.33362452 52.17078367 17.81031424 52.17617798 19.28700256 C52.18933902 23.31494966 52.19575655 27.34288006 52.20018864 31.37084532 C52.2031193 33.89352995 52.20722456 36.41621002 52.21169281 38.93889236 C52.22539039 46.84812155 52.23504046 54.75734033 52.2388947 62.66658056 C52.24335201 71.76240793 52.26078103 80.85808326 52.2898953 89.95386446 C52.31165333 96.9995616 52.32160678 104.04521648 52.32293582 111.09094679 C52.32397575 115.28959659 52.32970523 119.48810393 52.34775543 123.68671799 C52.46955408 153.76535405 52.4031745 183.50386599 30.30078125 206.7578125 C14.2065549 222.44216891 -5.6902217 227.48850779 -27.69140625 227.2265625 C-33.81139255 227.04121501 -39.86314578 226.36742107 -45.9375 225.625 C-46.98615234 225.49899414 -48.03480469 225.37298828 -49.11523438 225.24316406 C-50.09685547 225.11393555 -51.07847656 224.98470703 -52.08984375 224.8515625 C-53.40263306 224.67874756 -53.40263306 224.67874756 -54.74194336 224.50244141 C-57 224 -57 224 -60 222 C-59.72011436 217.66582235 -59.42397452 213.33289941 -59.125 209 C-59.04636719 207.77925781 -58.96773437 206.55851563 -58.88671875 205.30078125 C-57.73670383 188.93518426 -57.73670383 188.93518426 -53.8125 184.5625 C-49.59757414 182.22087452 -45.92507539 181.67560884 -41.171875 182.4765625 C-31.60828206 184.05479089 -21.36214655 183.83283214 -12.6875 179.25 C-4.47712767 172.37619991 -2.56886448 161.33651014 -1.65237045 151.12779808 C-1.52765178 147.17379884 -1.5256228 143.23254621 -1.57763672 139.27807617 C-1.58205498 137.78306997 -1.58465343 136.28805748 -1.58560181 134.79304504 C-1.59140219 131.611926 -1.6096603 128.43123003 -1.6382103 125.2502346 C-1.68322633 120.21999682 -1.69899859 115.1899092 -1.71121216 110.15950012 C-1.73383709 102.21260241 -1.77520871 94.26593628 -1.82500756 86.31916648 C-1.91421062 72.05439137 -1.9800394 57.78952976 -2.02549565 43.52454931 C-2.04230164 38.52258186 -2.0703345 33.52083892 -2.10744071 28.51898229 C-2.12868896 25.41922063 -2.14187878 22.31946112 -2.15304184 19.21964836 C-2.15999362 17.78085964 -2.17043352 16.34208301 -2.18457794 14.90334702 C-2.20342712 12.9434999 -2.20887714 10.98353743 -2.21359253 9.02360535 C-2.22063139 7.92625155 -2.22767025 6.82889776 -2.23492241 5.69829082 C-2 3 -2 3 0 0 Z " fill="#67A6DA" transform="translate(1059,245)"/>
<path d="M0 0 C1.25377441 0.00249756 2.50754883 0.00499512 3.79931641 0.00756836 C5.39952637 0.01667236 6.99973633 0.02577637 8.6484375 0.03515625 C13.7221875 0.05578125 18.7959375 0.07640625 24.0234375 0.09765625 C24.0234375 15.27765625 24.0234375 30.45765625 24.0234375 46.09765625 C35.736651 45.65032669 35.736651 45.65032669 47.44848633 45.16918945 C48.91743942 45.11937972 50.38643206 45.07071742 51.85546875 45.0234375 C52.61742554 44.9864978 53.37938232 44.94955811 54.16442871 44.91149902 C59.41658667 44.76292681 59.41658667 44.76292681 62.01123047 46.1940918 C63.52331661 49.03773281 63.39481956 51.42186066 63.38671875 54.62890625 C63.38575195 56.55669922 63.38575195 56.55669922 63.38476562 58.5234375 C63.37646729 59.19197754 63.36816895 59.86051758 63.35961914 60.54931641 C63.33601942 62.59057077 63.33906097 64.6305188 63.34570312 66.671875 C63.29039784 76.69721575 63.29039784 76.69721575 61.0234375 80.09765625 C58.33558933 80.43549721 55.866295 80.58657869 53.171875 80.609375 C52.01082748 80.6363018 52.01082748 80.6363018 50.82632446 80.66377258 C48.35041783 80.71802017 45.87470547 80.75181634 43.3984375 80.78515625 C41.72132704 80.81831671 40.04424227 80.85280518 38.3671875 80.88867188 C34.25274409 80.97375442 30.13835973 81.04049578 26.0234375 81.09765625 C24.52071948 84.10309229 24.86739741 87.20046726 24.86230469 90.49731445 C24.85733978 91.26010712 24.85237488 92.02289978 24.84725952 92.80880737 C24.83262462 95.33869318 24.82583327 97.86851627 24.8203125 100.3984375 C24.81456159 102.15480044 24.80880384 103.91116335 24.80303955 105.66752625 C24.7925254 109.35379326 24.78668563 113.04003845 24.78320312 116.72631836 C24.77772134 121.44755897 24.75370188 126.16851075 24.72523117 130.88966084 C24.70659655 134.51937194 24.70139873 138.14901364 24.69986725 141.77876854 C24.69684141 143.51908126 24.6888152 145.25939279 24.67568207 146.99965858 C24.65860619 149.43659973 24.66050551 151.87283757 24.66699219 154.30981445 C24.6577774 155.02740433 24.64856262 155.7449942 24.6390686 156.48432922 C24.67540775 160.84765589 25.2528112 163.68015944 28.0234375 167.09765625 C32.73401414 169.01382302 35.46478009 169.61033249 40.2109375 167.72265625 C40.82324219 167.42617188 41.43554688 167.1296875 42.06640625 166.82421875 C44.57692211 165.89217094 46.36425506 165.76998448 49.0234375 166.09765625 C54.65916332 170.31824387 58.06671451 177.29712435 61.4453125 183.30859375 C63.16848349 186.3539999 65.02908918 189.22579466 67.0234375 192.09765625 C65.31427139 197.03043944 61.48936183 198.32349822 57.04272461 200.51025391 C39.21435239 208.86386297 19.60420487 210.48544526 1.0234375 204.09765625 C-2.21114173 202.702073 -5.08544264 201.10554194 -7.9765625 199.09765625 C-8.91048828 198.45376953 -8.91048828 198.45376953 -9.86328125 197.796875 C-17.81583637 191.67289004 -22.6412421 181.94400901 -24.30784607 172.15103149 C-25.32242835 163.04691886 -25.10119142 153.8924478 -25.07421875 144.74609375 C-25.07235074 142.87708575 -25.07092865 141.00807727 -25.06993103 139.1390686 C-25.06613597 134.2499656 -25.0563318 129.3608929 -25.04522705 124.47180176 C-25.03494779 119.47078867 -25.03041952 114.46977063 -25.02539062 109.46875 C-25.01470648 99.6783722 -24.99766675 89.88801676 -24.9765625 80.09765625 C-26.38808594 80.14986328 -26.38808594 80.14986328 -27.828125 80.203125 C-29.07335937 80.23019531 -30.31859375 80.25726563 -31.6015625 80.28515625 C-33.44621094 80.33736328 -33.44621094 80.33736328 -35.328125 80.390625 C-39.30138721 80.0715729 -41.61944337 79.20939248 -44.9765625 77.09765625 C-47.21069263 73.74646106 -47.21504012 72.67988075 -47.171875 68.7734375 C-47.16542969 67.74541016 -47.15898438 66.71738281 -47.15234375 65.65820312 C-47.13558594 64.58634766 -47.11882813 63.51449219 -47.1015625 62.41015625 C-47.09253906 61.32669922 -47.08351563 60.24324219 -47.07421875 59.12695312 C-47.0506359 56.45029915 -47.01772376 53.77408828 -46.9765625 51.09765625 C-41.13073273 48.94365925 -35.60762535 47.54286323 -29.4140625 46.91015625 C-28.3302832 46.78737305 -28.3302832 46.78737305 -27.22460938 46.66210938 C-25.47621667 46.46527046 -23.72650901 46.28016601 -21.9765625 46.09765625 C-21.74582031 44.958125 -21.51507812 43.81859375 -21.27734375 42.64453125 C-19.4716064 33.82933532 -17.56974288 25.03682264 -15.4765625 16.28515625 C-15.28747314 15.45661133 -15.09838379 14.62806641 -14.90356445 13.77441406 C-13.68173135 8.78070187 -12.17960441 5.14594533 -8.9765625 1.09765625 C-6.00296801 -0.389141 -3.31357071 -0.0134698 0 0 Z " fill="#66A5DA" transform="translate(910.9765625,263.90234375)"/>
<path d="M0 0 C1.25377441 0.00249756 2.50754883 0.00499512 3.79931641 0.00756836 C5.39952637 0.01667236 6.99973633 0.02577637 8.6484375 0.03515625 C13.7221875 0.05578125 18.7959375 0.07640625 24.0234375 0.09765625 C24.0234375 15.27765625 24.0234375 30.45765625 24.0234375 46.09765625 C36.5634375 46.09765625 49.1034375 46.09765625 62.0234375 46.09765625 C62.0440625 51.52203125 62.0646875 56.94640625 62.0859375 62.53515625 C62.0950415 64.24888428 62.10414551 65.9626123 62.11352539 67.72827148 C62.11644466 69.07926352 62.11899319 70.43025644 62.12109375 71.78125 C62.12620972 72.48866333 62.13132568 73.19607666 62.13659668 73.92492676 C62.13690782 75.64958242 62.08569511 77.37412463 62.0234375 79.09765625 C61.0234375 80.09765625 61.0234375 80.09765625 57.51342773 80.21118164 C55.95295328 80.21102251 54.39247357 80.20532767 52.83203125 80.1953125 C52.01219254 80.19389755 51.19235382 80.1924826 50.34767151 80.19102478 C47.71872368 80.18540914 45.08985977 80.17285404 42.4609375 80.16015625 C40.68294393 80.15514326 38.90494904 80.15058001 37.12695312 80.14648438 C32.75908205 80.13543464 28.39127402 80.11815956 24.0234375 80.09765625 C24.08462329 90.85059855 24.1617112 101.60329762 24.25915241 112.3559761 C24.30389671 117.3487919 24.34314388 122.34152533 24.36987305 127.33447266 C24.39586552 132.15216593 24.43623912 136.96954293 24.48662376 141.78704071 C24.50331995 143.62581196 24.51481707 145.46463795 24.52105141 147.30347443 C24.53066265 149.87745896 24.55868558 152.45062931 24.59106445 155.02441406 C24.58962936 155.78614426 24.58819427 156.54787445 24.5867157 157.33268738 C24.64230136 160.45318598 24.83101786 162.73928935 26.31999207 165.51239014 C29.11677823 168.11514468 32.30198567 168.91822911 36.0234375 169.09765625 C38.20070253 168.53332836 40.14982153 167.74886583 42.21484375 166.86328125 C44.81808091 165.76126293 46.25310766 165.36862208 49.0234375 166.09765625 C53.93599231 170.74261151 57.39611228 176.59102146 60.8359375 182.34765625 C61.32513672 183.14945313 61.81433594 183.95125 62.31835938 184.77734375 C65.88128693 190.67120455 65.88128693 190.67120455 67.0234375 194.09765625 C51.99749895 204.44433734 32.58823121 210.78831943 14.12060547 207.78857422 C0.62822053 205.2581461 -9.733979 200.42432445 -17.9765625 189.09765625 C-26.23443585 176.30110442 -25.25559255 161.52688718 -25.171875 146.89453125 C-25.1681376 144.9611221 -25.16529407 143.02771105 -25.16329956 141.09429932 C-25.15572032 136.04407376 -25.13612188 130.9939661 -25.1138916 125.94378662 C-25.09330914 120.77504063 -25.08427151 115.6062753 -25.07421875 110.4375 C-25.05286978 100.32416739 -25.01880408 90.21092169 -24.9765625 80.09765625 C-26.38808594 80.14986328 -26.38808594 80.14986328 -27.828125 80.203125 C-29.07335938 80.23019531 -30.31859375 80.25726563 -31.6015625 80.28515625 C-33.44621094 80.33736328 -33.44621094 80.33736328 -35.328125 80.390625 C-39.30138721 80.0715729 -41.61944337 79.20939248 -44.9765625 77.09765625 C-47.24254698 73.69867952 -47.21398904 72.53446452 -47.171875 68.5546875 C-47.16542969 67.48154297 -47.15898438 66.40839844 -47.15234375 65.30273438 C-47.12720703 63.6234082 -47.12720703 63.6234082 -47.1015625 61.91015625 C-47.09253906 60.77900391 -47.08351563 59.64785156 -47.07421875 58.48242188 C-47.05063112 55.68728797 -47.0177155 52.8925778 -46.9765625 50.09765625 C-43.56105954 49.42493278 -40.14398798 48.76053826 -36.7265625 48.09765625 C-35.75847656 47.906875 -34.79039063 47.71609375 -33.79296875 47.51953125 C-32.85839844 47.3390625 -31.92382812 47.15859375 -30.9609375 46.97265625 C-29.67268066 46.72128906 -29.67268066 46.72128906 -28.35839844 46.46484375 C-25.9765625 46.09765625 -25.9765625 46.09765625 -21.9765625 46.09765625 C-21.84677002 45.26951416 -21.71697754 44.44137207 -21.58325195 43.58813477 C-20.52060238 37.4743718 -19.09407634 31.439101 -17.70288086 25.39331055 C-17.34354414 23.82066291 -16.98970256 22.24674962 -16.64135742 20.67163086 C-16.13455997 18.38209042 -15.61020191 16.09719222 -15.08203125 13.8125 C-14.93082321 13.11342026 -14.77961517 12.41434052 -14.62382507 11.69407654 C-13.57713331 7.27732465 -12.11835846 4.37643683 -8.9765625 1.09765625 C-6.00296801 -0.389141 -3.31357071 -0.0134698 0 0 Z " fill="#C74C4C" transform="translate(1379.9765625,263.90234375)"/>
<path d="M0 0 C0.91442368 -0.00637985 1.82884735 -0.0127597 2.77098083 -0.01933289 C3.76573929 -0.02044571 4.76049774 -0.02155853 5.78540039 -0.02270508 C6.80026016 -0.02603348 7.81511993 -0.02936188 8.86073303 -0.03279114 C11.01196844 -0.03786483 13.16321174 -0.04019933 15.31445312 -0.04003906 C18.615447 -0.04222467 21.91610639 -0.0603734 25.21704102 -0.0793457 C27.30232632 -0.08227964 29.38761323 -0.08426443 31.47290039 -0.08520508 C32.46563461 -0.09239059 33.45836884 -0.09957611 34.48118591 -0.10697937 C35.39876175 -0.10390274 36.31633759 -0.10082611 37.26171875 -0.09765625 C38.07144638 -0.09908127 38.88117401 -0.10050629 39.71543884 -0.10197449 C41.69555664 0.14526367 41.69555664 0.14526367 43.69555664 2.14526367 C43.94444561 4.8404932 43.94444561 4.8404932 43.9427948 8.33937073 C43.94520922 8.98149173 43.94762363 9.62361274 43.95011121 10.28519195 C43.95576705 12.44641493 43.94707116 14.60734479 43.93847656 16.76855469 C43.93954897 18.31400635 43.94148703 19.85945762 43.94422913 21.40490723 C43.94908684 25.60930682 43.94141059 29.81360068 43.93127608 34.01798749 C43.922512 38.40977187 43.9242527 42.80155278 43.92463684 47.19334412 C43.92369954 54.56853003 43.91500618 61.94367487 43.90136719 69.31884766 C43.88563515 77.85761568 43.88036924 86.3963387 43.88110274 94.93512017 C43.88171213 103.13531596 43.87661522 111.33549703 43.86831093 119.5356884 C43.86477146 123.03209485 43.86294674 126.52849609 43.86241722 130.02490425 C43.86141599 134.13785842 43.8553375 138.25077451 43.84525108 142.36371613 C43.84231918 143.87748672 43.8411021 145.3912617 43.84167862 146.90503502 C43.84216592 148.96274087 43.83592041 151.0204451 43.82926941 153.07814026 C43.82759356 154.23239282 43.82591772 155.38664537 43.82419109 156.57587528 C43.69555664 159.14526367 43.69555664 159.14526367 42.69555664 160.14526367 C41.19136925 160.23838257 39.68284308 160.26272395 38.17578125 160.25878906 C36.73440041 160.25867577 36.73440041 160.25867577 35.26390076 160.25856018 C34.21912064 160.2533989 33.17434052 160.24823761 32.09790039 160.24291992 C30.50190758 160.2407975 30.50190758 160.2407975 28.87367249 160.2386322 C25.46010581 160.23301431 22.04660364 160.22045878 18.63305664 160.20776367 C16.32511488 160.20275098 14.01717209 160.19818767 11.70922852 160.1940918 C6.03798238 160.18303907 0.36677412 160.16628354 -5.30444336 160.14526367 C-5.32777053 139.43151147 -5.34542164 118.71776142 -5.35625553 98.00399876 C-5.36141888 88.38693872 -5.36846231 78.76988684 -5.37988281 69.15283203 C-5.38982848 60.77375198 -5.39629651 52.39467783 -5.39853185 44.01559204 C-5.39983916 39.57610242 -5.40292627 35.13662968 -5.41017342 30.69714546 C-5.41693178 26.52349094 -5.4190607 22.34986034 -5.41755104 18.17620087 C-5.41782745 16.63985248 -5.41983366 15.10350333 -5.42364883 13.56715965 C-5.42858323 11.4786675 -5.42744261 9.3902671 -5.42469788 7.30177307 C-5.42561967 6.13017419 -5.42654146 4.95857531 -5.42749119 3.75147343 C-5.22706515 -0.49364255 -3.82757995 0.01803608 0 0 Z " fill="#6BA8DB" transform="translate(628.304443359375,308.854736328125)"/>
<path d="M0 0 C6.82091702 4.71865784 12.13456528 10.76099664 14 19 C14.89043196 27.66147451 13.56168754 34.15334528 8.38671875 41.1953125 C2.80951984 47.89784422 -3.2000198 52.21662605 -12.0078125 53.40625 C-21.37580938 53.68799427 -28.70156312 51.47755229 -35.94140625 45.359375 C-37.52893768 43.65645908 -38.77013979 41.97510663 -40 40 C-40.40992188 39.34386719 -40.81984375 38.68773437 -41.2421875 38.01171875 C-44.63294088 31.61605634 -44.9984103 25.10076291 -44 18 C-40.99899087 8.93547651 -35.00672425 2.91892925 -27 -2 C-18.07042268 -6.16713608 -8.50478549 -4.33502519 0 0 Z " fill="#66A5DA" transform="translate(663,242)"/>
<path d="M0 0 C3.96 0 7.92 0 12 0 C12 7.26 12 14.52 12 22 C56.22 22 100.44 22 146 22 C146 14.74 146 7.48 146 0 C149.96 0 153.92 0 158 0 C158.09890664 4.35988072 158.17148376 8.71916673 158.21972656 13.07983398 C158.23983759 14.56302261 158.26713074 16.04613199 158.30175781 17.52905273 C158.35030352 19.66149435 158.37297195 21.79288777 158.390625 23.92578125 C158.41157227 25.20880127 158.43251953 26.49182129 158.45410156 27.8137207 C158 31 158 31 156.5241394 32.67112732 C152.83359281 34.61407332 149.23427342 34.44760273 145.15966797 34.44824219 C143.8149366 34.46588812 143.8149366 34.46588812 142.44303894 34.48389053 C139.45937841 34.51922831 136.47602011 34.53322352 133.4921875 34.546875 C131.38956619 34.56682037 129.28695553 34.58791925 127.18435669 34.61010742 C121.57129437 34.66498126 115.95827622 34.70028098 110.34503174 34.73027039 C106.88688336 34.74993243 103.42880656 34.77454983 99.97070312 34.80090332 C74.31497377 34.99522428 48.65421164 35.17497989 23 34.75 C21.99805603 34.73739136 20.99611206 34.72478271 19.96380615 34.71179199 C17.24602233 34.6735431 14.52967881 34.61495644 11.8125 34.546875 C11.05695831 34.5372876 10.30141663 34.5277002 9.52297974 34.51782227 C6.58467971 34.41886184 4.23408613 34.10375221 1.53613281 32.90795898 C-0.81198525 29.99147096 -0.45093368 27.61968818 -0.390625 23.92578125 C-0.38496521 23.2419487 -0.37930542 22.55811615 -0.37347412 21.8535614 C-0.35110816 19.67249101 -0.30091765 17.49307247 -0.25 15.3125 C-0.229935 13.83270605 -0.21168422 12.3528863 -0.1953125 10.87304688 C-0.15124474 7.2481624 -0.08221822 3.62424244 0 0 Z " fill="#C64C4C" transform="translate(1311,482)"/>
<path d="M0 0 C1.91810989 -0.01268921 1.91810989 -0.01268921 3.87496948 -0.02563477 C5.29498418 -0.01980165 6.71499762 -0.01365713 8.13500977 -0.00723267 C9.62810653 -0.01129704 11.12120029 -0.01663817 12.61428833 -0.02316284 C16.67210872 -0.03685831 20.72970071 -0.03152868 24.78752518 -0.02202559 C29.03023147 -0.0144405 33.27291795 -0.02147139 37.515625 -0.02618408 C44.64106769 -0.031645 51.76641716 -0.02444123 58.8918457 -0.01016235 C67.13471288 0.00616484 75.37735745 0.00087656 83.62021923 -0.01564157 C90.69204968 -0.02924688 97.76381304 -0.03118079 104.83565235 -0.02332556 C109.06168581 -0.01864377 113.28761458 -0.01803802 117.51364136 -0.02793503 C121.48635169 -0.03658858 125.4587745 -0.03061255 129.4314537 -0.01325226 C130.89116818 -0.00927875 132.35090678 -0.01043621 133.81061172 -0.01704025 C135.79967649 -0.0252109 137.78879401 -0.01315843 139.77783203 0 C141.44918968 0.00169662 141.44918968 0.00169662 143.15431213 0.00342751 C145.88891602 0.38095093 145.88891602 0.38095093 147.74957275 1.7056179 C149.63558757 4.47888475 149.22221659 7.1614042 149.18188477 10.45516968 C149.17763992 11.13900223 149.17339508 11.82283478 149.16902161 12.52738953 C149.15224955 14.70814654 149.11460258 16.88797401 149.07641602 19.06845093 C149.06136716 20.54825527 149.0476791 22.02807413 149.03540039 23.50790405 C149.0023517 27.13255429 148.95058047 30.75666187 148.88891602 34.38095093 C144.92891602 34.38095093 140.96891602 34.38095093 136.88891602 34.38095093 C136.88891602 26.79095093 136.88891602 19.20095093 136.88891602 11.38095093 C92.66891602 11.38095093 48.44891602 11.38095093 2.88891602 11.38095093 C2.88891602 18.97095093 2.88891602 26.56095093 2.88891602 34.38095093 C-1.07108398 34.38095093 -5.03108398 34.38095093 -9.11108398 34.38095093 C-9.18526444 30.02104219 -9.23969942 25.66146814 -9.27587891 21.30111694 C-9.29096167 19.81797893 -9.31143087 18.33488549 -9.33740234 16.85189819 C-9.37381014 14.71954348 -9.39081471 12.58777858 -9.40405273 10.45516968 C-9.41976318 9.17214966 -9.43547363 7.88912964 -9.45166016 6.56723022 C-9.11108398 3.38095093 -9.11108398 3.38095093 -7.97174072 1.7056179 C-5.28997391 -0.20362621 -3.27444892 0.00332393 0 0 Z " fill="#C45151" transform="translate(1320.111083984375,188.61904907226563)"/>
<path d="M0 0 C3.96 0 7.92 0 12 0 C12 7.26 12 14.52 12 22 C56.22 22 100.44 22 146 22 C146 14.74 146 7.48 146 0 C149.96 0 153.92 0 158 0 C158.09890664 4.35988072 158.17148376 8.71916673 158.21972656 13.07983398 C158.23983759 14.56302261 158.26713074 16.04613199 158.30175781 17.52905273 C158.35030352 19.66149435 158.37297195 21.79288777 158.390625 23.92578125 C158.41157227 25.20880127 158.43251953 26.49182129 158.45410156 27.8137207 C158 31 158 31 156.5241394 32.67112732 C152.83359281 34.61407332 149.23427342 34.44760273 145.15966797 34.44824219 C143.8149366 34.46588812 143.8149366 34.46588812 142.44303894 34.48389053 C139.45937841 34.51922831 136.47602011 34.53322352 133.4921875 34.546875 C131.38956619 34.56682037 129.28695553 34.58791925 127.18435669 34.61010742 C121.57129437 34.66498126 115.95827622 34.70028098 110.34503174 34.73027039 C106.88688336 34.74993243 103.42880656 34.77454983 99.97070312 34.80090332 C74.31497377 34.99522428 48.65421164 35.17497989 23 34.75 C21.99805603 34.73739136 20.99611206 34.72478271 19.96380615 34.71179199 C17.24602233 34.6735431 14.52967881 34.61495644 11.8125 34.546875 C11.05695831 34.5372876 10.30141663 34.5277002 9.52297974 34.51782227 C6.58467971 34.41886184 4.23408613 34.10375221 1.53613281 32.90795898 C-0.81198525 29.99147096 -0.45093368 27.61968818 -0.390625 23.92578125 C-0.38496521 23.2419487 -0.37930542 22.55811615 -0.37347412 21.8535614 C-0.35110816 19.67249101 -0.30091765 17.49307247 -0.25 15.3125 C-0.229935 13.83270605 -0.21168422 12.3528863 -0.1953125 10.87304688 C-0.15124474 7.2481624 -0.08221822 3.62424244 0 0 Z M147 1 C147 8.26 147 15.52 147 23 C102.12 22.67 57.24 22.34 11 22 C10.67 16.39 10.34 10.78 10 5 C9.67 4.01 9.34 3.02 9 2 C6.69 2 4.38 2 2 2 C2 11.24 2 20.48 2 30 C6.05511496 32.02755748 7.64930625 32.25089154 12.03479004 32.25396729 C13.2713887 32.25960693 14.50798737 32.26524658 15.78205872 32.27105713 C17.14962827 32.26716865 18.51719725 32.26307232 19.88476562 32.25878906 C21.3271248 32.26149956 22.7694826 32.26506082 24.21183777 32.26940918 C28.12706838 32.27852849 32.04219361 32.27499083 35.95742607 32.26865101 C40.0541805 32.26358865 44.15092588 32.26828312 48.24768066 32.27142334 C55.12753927 32.27506229 62.00735494 32.27026574 68.88720703 32.26074219 C76.8420393 32.24985776 84.79676905 32.25338339 92.75159883 32.264395 C99.58056914 32.27346988 106.40950857 32.27475217 113.23848295 32.26951766 C117.31751912 32.26639907 121.39650709 32.26598558 125.47554016 32.27259064 C129.31031915 32.27836639 133.14496591 32.27436302 136.97973061 32.26280212 C138.38742669 32.26015677 139.79513389 32.26091853 141.20282555 32.26532745 C143.12361632 32.27078893 145.0444314 32.26272721 146.96520996 32.25396729 C148.57792912 32.25283621 148.57792912 32.25283621 150.22322845 32.25168228 C153.32667956 32.14053464 153.32667956 32.14053464 157 30 C157 20.43 157 10.86 157 1 C153.7 1 150.4 1 147 1 Z " fill="#CF8080" transform="translate(1311,482)"/>
<path d="M0 0 C0.33 0 0.66 0 1 0 C1 52.14 1 104.28 1 158 C2.65 157.67 4.3 157.34 6 157 C19.2 157 32.4 157 46 157 C46 119.71 46 82.42 46 44 C47.98 43.505 47.98 43.505 50 43 C49.89289294 57.97691537 49.7801556 72.95378039 49.66066074 87.93060207 C49.6053131 94.88413731 49.55182863 101.83767768 49.50268555 108.79125977 C49.45529867 115.49561109 49.402779 122.19990387 49.34705925 128.90419197 C49.32660077 131.46836091 49.30789362 134.0325444 49.29092598 136.59673882 C49.26695904 140.17449105 49.23689429 143.75214195 49.20532227 147.32983398 C49.1995668 148.40157364 49.19381134 149.47331329 49.18788147 150.57752991 C49.17319824 152.03103348 49.17319824 152.03103348 49.15821838 153.51390076 C49.15176583 154.36102851 49.14531328 155.20815626 49.1386652 156.08095455 C49 158 49 158 48 159 C32.16 159 16.32 159 0 159 C0 106.53 0 54.06 0 0 Z " fill="#AED3EA" transform="translate(698,310)"/>
<path d="M0 0 C0.33 0 0.66 0 1 0 C1 15.18 1 30.36 1 46 C13.54 46 26.08 46 39 46 C39.020625 51.424375 39.04125 56.84875 39.0625 62.4375 C39.071604 64.15122803 39.08070801 65.86495605 39.09008789 67.63061523 C39.09300716 68.98160727 39.09555569 70.33260019 39.09765625 71.68359375 C39.10277222 72.39100708 39.10788818 73.09842041 39.11315918 73.82727051 C39.11347032 75.55192617 39.06225761 77.27646838 39 79 C38.67 79.33 38.34 79.66 38 80 C25.79 80 13.58 80 1 80 C1.33 108.05 1.66 136.1 2 165 C1.01 165 0.02 165 -1 165 C-1.33 135.96 -1.66 106.92 -2 77 C10.54 77 23.08 77 36 77 C36 67.76 36 58.52 36 49 C33.56882812 49.01160156 31.13765625 49.02320313 28.6328125 49.03515625 C26.28304169 49.04295082 23.93327232 49.04902531 21.58349609 49.05493164 C19.94807289 49.05996621 18.3126542 49.06679427 16.67724609 49.07543945 C14.32909025 49.08754335 11.98099381 49.093237 9.6328125 49.09765625 C8.53273361 49.10539818 8.53273361 49.10539818 7.41043091 49.11329651 C2.22774341 49.11387171 2.22774341 49.11387171 0 48 C0 32.16 0 16.32 0 0 Z " fill="#D68C8D" transform="translate(1403,264)"/>
<path d="M0 0 C0.33 0 0.66 0 1 0 C1 15.18 1 30.36 1 46 C12.7132135 45.55267044 12.7132135 45.55267044 24.42504883 45.0715332 C25.89400192 45.02172347 27.36299456 44.97306117 28.83203125 44.92578125 C29.97496643 44.8703717 29.97496643 44.8703717 31.14099121 44.81384277 C36.39314917 44.66527056 36.39314917 44.66527056 38.98779297 46.09643555 C40.49987911 48.94007656 40.37138206 51.32420441 40.36328125 54.53125 C40.36263672 55.81644531 40.36199219 57.10164063 40.36132812 58.42578125 C40.35302979 59.09432129 40.34473145 59.76286133 40.33618164 60.45166016 C40.31258192 62.49291452 40.31562347 64.53286255 40.32226562 66.57421875 C40.26696034 76.5995595 40.26696034 76.5995595 38 80 C35.31215183 80.33784096 32.8428575 80.48892244 30.1484375 80.51171875 C29.37440582 80.52966995 28.60037415 80.54762115 27.80288696 80.56611633 C25.32698033 80.62036392 22.85126797 80.65416009 20.375 80.6875 C18.69788954 80.72066046 17.02080477 80.75514893 15.34375 80.79101562 C11.22930659 80.87609817 7.11492223 80.94283953 3 81 C1.48878976 84.02242048 1.82077909 87.16152831 1.79467773 90.47900391 C1.78477814 91.24982803 1.77487854 92.02065216 1.76467896 92.81483459 C1.7330317 95.3687124 1.70829383 97.92260882 1.68359375 100.4765625 C1.663027 102.24490855 1.64203061 104.01324965 1.62062073 105.78158569 C1.56537119 110.44059243 1.51597464 115.09964375 1.46777344 119.75872803 C1.41757944 124.51106747 1.36188242 129.26334202 1.30664062 134.015625 C1.19902381 143.34369459 1.09758667 152.67182047 1 162 C0.67 162 0.34 162 0 162 C0 133.95 0 105.9 0 77 C12.21 77 24.42 77 37 77 C36.67 67.43 36.34 57.86 36 48 C30.555 48.495 30.555 48.495 25 49 C22.66775693 49.08260028 20.33369858 49.13060985 18 49.125 C16.39125 49.12886719 16.39125 49.12886719 14.75 49.1328125 C9.82194425 48.95827719 4.91089431 48.44644494 0 48 C0 32.16 0 16.32 0 0 Z " fill="#97BEDE" transform="translate(934,264)"/>
<path d="M0 0 C0.66 0.33 1.32 0.66 2 1 C2 36.64 2 72.28 2 109 C-13.84 109 -29.68 109 -46 109 C-46 74.35 -46 39.7 -46 4 C-45.67 4 -45.34 4 -45 4 C-45 37.66 -45 71.32 -45 106 C-30.15 106.33 -15.3 106.66 0 107 C0 71.69 0 36.38 0 0 Z " fill="#92B8D9" transform="translate(841,360)"/>
<path d="M0 0 C5.28 0 10.56 0 16 0 C16.01213028 1.67130478 16.01213028 1.67130478 16.02450562 3.37637329 C16.10202464 13.88193295 16.18977861 24.38736403 16.28752708 34.89275551 C16.33745107 40.29354921 16.38378158 45.69432372 16.421875 51.09521484 C16.45877686 56.30836216 16.50515037 61.5213474 16.55806351 66.73435593 C16.57658137 68.72220387 16.59169894 70.71008652 16.60334396 72.6979866 C16.62025093 75.48453582 16.64929695 78.27071598 16.68115234 81.05712891 C16.68331253 81.87712372 16.68547272 82.69711853 16.68769836 83.54196167 C16.75409964 88.09534621 17.34886533 91.69516718 19 96 C19.22663986 98.71061275 19.0940868 101.27148292 19 104 C11.32323121 94.91466032 13.74041766 79.03011398 13.8046875 67.796875 C13.8084249 65.86346585 13.81126843 63.9300548 13.81326294 61.99664307 C13.82084218 56.94641751 13.84044062 51.89630985 13.8626709 46.84613037 C13.88325336 41.67738438 13.89229099 36.50861905 13.90234375 31.33984375 C13.92369272 21.22651114 13.95775842 11.11326544 14 1 C9.38 1 4.76 1 0 1 C0 0.67 0 0.34 0 0 Z " fill="#DC9E9D" transform="translate(1341,343)"/>
<path d="M0 0 C0.66 0 1.32 0 2 0 C2.02336095 20.88816622 2.0409949 41.77633028 2.05181217 62.66450691 C2.05696833 72.36325645 2.06399809 82.06199786 2.07543945 91.76074219 C2.08540705 100.21421593 2.09185838 108.66768379 2.09408849 117.12116325 C2.09539206 121.5971416 2.09845563 126.07310312 2.10573006 130.54907608 C2.11252298 134.76296415 2.11461028 138.97682849 2.11310768 143.19072151 C2.11338254 144.73625759 2.11536823 146.28179448 2.11920547 147.82732582 C2.12419385 149.94034298 2.12297935 152.05327099 2.12025452 154.16629028 C2.12117631 155.34802889 2.1220981 156.52976749 2.12304783 157.74731636 C2.00320936 160.9151629 1.59537825 163.88955513 1 167 C0.34 166.67 -0.32 166.34 -1 166 C-1.04254356 164.00045254 -1.04080783 161.99958364 -1 160 C-0.67 159.67 -0.34 159.34 0 159 C0.09680041 156.94972261 0.12186943 154.89605121 0.12025452 152.8434906 C0.12110894 152.19335135 0.12196337 151.5432121 0.12284368 150.87337166 C0.12450026 148.6791442 0.11897425 146.48499198 0.11352539 144.29077148 C0.11324353 142.72414146 0.11340123 141.1575113 0.1139679 139.59088135 C0.11425592 135.32453623 0.10835843 131.05821898 0.10139394 126.79188037 C0.09516118 122.33822949 0.09455666 117.88457803 0.09336853 113.43092346 C0.09025498 104.99132557 0.08204128 96.55174056 0.07201904 88.11214834 C0.06085863 78.50650556 0.05534764 68.90086218 0.05032361 59.29521453 C0.03985868 39.53013582 0.02225879 19.76506872 0 0 Z " fill="#71A5D4" transform="translate(1108,247)"/>
<path d="M0 0 C2 3.75 2 3.75 2 6 C-1.50776784 7.60355101 -4.14354879 8.22036864 -8 8 C-8 8.66 -8 9.32 -8 10 C-8.60328125 10.12117188 -9.2065625 10.24234375 -9.828125 10.3671875 C-10.62734375 10.53476562 -11.4265625 10.70234375 -12.25 10.875 C-13.43335938 11.11863281 -13.43335938 11.11863281 -14.640625 11.3671875 C-18.01857484 12.25726774 -18.01857484 12.25726774 -21 14 C-23.61759381 21.83001974 -23.10489866 29.16509942 -21 37 C-16.71 37 -12.42 37 -8 37 C-8 36.34 -8 35.68 -8 35 C-6.68 35.66 -5.36 36.32 -4 37 C-4 37.33 -4 37.66 -4 38 C-7.10385211 38.11613204 -10.20714662 38.18722029 -13.3125 38.25 C-14.19357422 38.28351563 -15.07464844 38.31703125 -15.98242188 38.3515625 C-16.82998047 38.36445313 -17.67753906 38.37734375 -18.55078125 38.390625 C-19.33106689 38.41157227 -20.11135254 38.43251953 -20.9152832 38.45410156 C-23 38 -23 38 -24.75976562 36.31445312 C-26.25879546 33.517051 -26.34567382 31.74042897 -26.29296875 28.578125 C-26.28330078 27.55332031 -26.27363281 26.52851563 -26.26367188 25.47265625 C-26.23853516 24.40917969 -26.21339844 23.34570312 -26.1875 22.25 C-26.17396484 21.17105469 -26.16042969 20.09210938 -26.14648438 18.98046875 C-26.11116584 16.3198058 -26.06184199 13.66015704 -26 11 C-20.15417023 8.846003 -14.63106285 7.44520698 -8.4375 6.8125 C-7.71498047 6.73064453 -6.99246094 6.64878906 -6.24804688 6.56445312 C-4.49965417 6.36761421 -2.74994651 6.18250976 -1 6 C-0.67 4.02 -0.34 2.04 0 0 Z " fill="#80B3DA" transform="translate(890,304)"/>
<path d="M0 0 C12.24834144 3.02454666 12.24834144 3.02454666 16 6 C16 6.66 16 7.32 16 8 C17.953125 7.93489583 19.90625 7.86979167 21.859375 7.8046875 C24 8 24 8 25.80273438 8.94238281 C34.60958541 13.18141378 45.75026697 12.24911711 55.25 12.125 C56.59244113 12.11493575 57.93488969 12.10581607 59.27734375 12.09765625 C62.51842489 12.07433912 65.75911102 12.04161552 69 12 C69 12.33 69 12.66 69 13 C49.32483011 16.28371801 29.91326964 15.48017039 11.375 7.5625 C10.69928955 7.2742334 10.0235791 6.9859668 9.32739258 6.68896484 C5.52305634 4.9680817 2.73759886 3.16144031 0 0 Z " fill="#A3C6E2" transform="translate(1165,457)"/>
<path d="M0 0 C12.54 0 25.08 0 38 0 C38 0.33 38 0.66 38 1 C20.675 1.495 20.675 1.495 3 2 C1.48878976 5.02242048 1.82077909 8.16152831 1.79467773 11.47900391 C1.78477814 12.24982803 1.77487854 13.02065216 1.76467896 13.81483459 C1.7330317 16.3687124 1.70829383 18.92260882 1.68359375 21.4765625 C1.663027 23.24490855 1.64203061 25.01324965 1.62062073 26.78158569 C1.56537119 31.44059243 1.51597464 36.09964375 1.46777344 40.75872803 C1.41757944 45.51106747 1.36188242 50.26334202 1.30664062 55.015625 C1.19902381 64.34369459 1.09758667 73.67182047 1 83 C0.67 83 0.34 83 0 83 C0 55.61 0 28.22 0 0 Z " fill="#D0E8FB" transform="translate(934,343)"/>
<path d="M0 0 C0.66 0 1.32 0 2 0 C2 9.57 2 19.14 2 29 C4.64 29 7.28 29 10 29 C10 22.07 10 15.14 10 8 C10.66 8 11.32 8 12 8 C12 15.59 12 23.18 12 31 C8.04 31 4.08 31 0 31 C0 20.77 0 10.54 0 0 Z " fill="#C87D7E" transform="translate(1311,192)"/>
<path d="M0 0 C7.93949962 15.1706199 4.14548952 35.99170513 1 52 C0.67 52 0.34 52 0 52 C0.03552979 50.99324219 0.07105957 49.98648438 0.10766602 48.94921875 C0.2402839 45.13239724 0.36260753 41.31529751 0.48217773 37.49804688 C0.53480771 35.86123879 0.59005023 34.22451214 0.64819336 32.58789062 C1.03475235 21.64322918 0.90280151 10.92022686 0 0 Z " fill="#A5C6E0" transform="translate(594,363)"/>
<path d="M0 0 C7.875 0.875 7.875 0.875 9 2 C11.21687994 2.15873955 13.43855298 2.25133837 15.66015625 2.31640625 C16.65685585 2.3475779 16.65685585 2.3475779 17.6736908 2.37937927 C19.80318543 2.44493658 21.93280668 2.50378785 24.0625 2.5625 C25.50326847 2.60567939 26.94402399 2.64929349 28.38476562 2.69335938 C31.9230404 2.80062393 35.46145869 2.90187371 39 3 C39 2.34 39 1.68 39 1 C42.3 1 45.6 1 49 1 C40.5390182 6.64065454 24.72334535 7.40876471 14.95214844 5.62646484 C10.23059493 4.64689376 5.57085389 3.54048458 1 2 C0.67 1.34 0.34 0.68 0 0 Z " fill="#D49595" transform="translate(1379,466)"/>
<path d="M0 0 C-2.75924185 1.80411967 -3.88972103 2.0127245 -7.25 1.625 C-8.61125 1.315625 -8.61125 1.315625 -10 1 C-10 0.34 -10 -0.32 -10 -1 C-12.64 -1.33 -15.28 -1.66 -18 -2 C-18 -2.66 -18 -3.32 -18 -4 C-29.88 -4.33 -41.76 -4.66 -54 -5 C-54 -5.33 -54 -5.66 -54 -6 C-35.73229605 -8.96820025 -17.17847239 -6.85175642 0 0 Z " fill="#AECFE8" transform="translate(554,314)"/>
<path d="M0 0 C-1.85296835 0.48377991 -3.70744441 0.96178636 -5.5625 1.4375 C-6.59503906 1.70433594 -7.62757813 1.97117187 -8.69140625 2.24609375 C-15.11846354 3.7105826 -21.3128155 4.19292049 -27.875 4.1875 C-29.10053589 4.1884668 -29.10053589 4.1884668 -30.35083008 4.18945312 C-38.65403029 4.11910734 -46.78997908 3.17736536 -55 2 C-55 1.67 -55 1.34 -55 1 C-53.88141602 1.01571045 -52.76283203 1.0314209 -51.61035156 1.04760742 C-47.40583682 1.1024705 -43.20135279 1.13655224 -38.99658203 1.16479492 C-37.18695735 1.17975449 -35.3773681 1.20012957 -33.56787109 1.22631836 C-19.74580598 1.44537462 -19.74580598 1.44537462 -6.30371094 -1.5456543 C-3.48649334 -2.10127553 -2.37218395 -1.5246324 0 0 Z " fill="#BBD8EB" transform="translate(366,468)"/>
<path d="M0 0 C0.66 0.66 1.32 1.32 2 2 C1.67582137 5.80909895 1.14418558 7.78372163 -1 11 C-5.57800534 24.04299634 -5.80108529 37.30918081 -6 51 C-6.33 51 -6.66 51 -7 51 C-7.41984327 32.86061779 -6.97138451 17.02150227 0 0 Z " fill="#BBD7EC" transform="translate(1139,351)"/>
<path d="M0 0 C1.35330445 2.7066089 0.60863457 4.054219 0 7 C-0.24519724 11.72673414 -0.23100364 16.45503105 -0.25 21.1875 C-0.270625 22.48365234 -0.29125 23.77980469 -0.3125 25.11523438 C-0.31765625 26.34951172 -0.3228125 27.58378906 -0.328125 28.85546875 C-0.3374707 29.98621826 -0.34681641 31.11696777 -0.35644531 32.28198242 C-0.23881836 33.17892822 -0.12119141 34.07587402 0 35 C0.99 35.66 1.98 36.32 3 37 C0.69 36.67 -1.62 36.34 -4 36 C-4.42821235 27.59435011 -3.70270915 19.57022672 -2.5625 11.25 C-2.360802 9.76669189 -2.360802 9.76669189 -2.1550293 8.25341797 C-1.13542488 1.13542488 -1.13542488 1.13542488 0 0 Z " fill="#AACBE5" transform="translate(306,432)"/>
<path d="M0 0 C0.33 0 0.66 0 1 0 C1.63337985 9.06085057 1.63337985 9.06085057 -0.8125 12.6875 C-1.534375 13.450625 -2.25625 14.21375 -3 15 C-4.15492845 17.29052755 -5.06187788 19.60778858 -6 22 C-6.66 21.67 -7.32 21.34 -8 21 C-6.68 15.06 -5.36 9.12 -4 3 C-3.01 3 -2.02 3 -1 3 C-0.67 2.01 -0.34 1.02 0 0 Z " fill="#7AB2DF" transform="translate(1061,397)"/>
<path d="M0 0 C-0.33 0.66 -0.66 1.32 -1 2 C-3.1171875 2.6328125 -3.1171875 2.6328125 -5.875 3.125 C-6.75929688 3.29257812 -7.64359375 3.46015625 -8.5546875 3.6328125 C-13.344223 4.14326186 -18.18334049 4 -23 4 C-23 11.59 -23 19.18 -23 27 C-23.33 27 -23.66 27 -24 27 C-24 19.08 -24 11.16 -24 3 C-20.596875 2.319375 -17.19375 1.63875 -13.6875 0.9375 C-12.61846436 0.71956787 -11.54942871 0.50163574 -10.44799805 0.27709961 C-9.60277588 0.11218018 -8.75755371 -0.05273926 -7.88671875 -0.22265625 C-6.59060669 -0.48187866 -6.59060669 -0.48187866 -5.26831055 -0.74633789 C-3 -1 -3 -1 0 0 Z " fill="#D49090" transform="translate(1357,311)"/>
<path d="M0 0 C3.74890635 0.39682811 7.48326649 0.34295623 11.2487793 0.30053711 C12.02350586 0.29602539 12.79823242 0.29151367 13.59643555 0.28686523 C15.48058453 0.27523469 17.36469295 0.25730617 19.2487793 0.23803711 C18.5887793 0.56803711 17.9287793 0.89803711 17.2487793 1.23803711 C17.2487793 1.89803711 17.2487793 2.55803711 17.2487793 3.23803711 C-0.60771273 3.60705761 -0.60771273 3.60705761 -8.7512207 1.23803711 C-8.7512207 1.89803711 -8.7512207 2.55803711 -8.7512207 3.23803711 C-12.2162207 4.72303711 -12.2162207 4.72303711 -15.7512207 6.23803711 C-14.38138568 3.07687935 -13.76215691 2.24532791 -10.7512207 0.23803711 C-6.95523452 -0.95498712 -3.89310613 -0.51970322 0 0 Z " fill="#94BCDD" transform="translate(1018.751220703125,427.761962890625)"/>
<path d="M0 0 C1.3303125 0.7115625 1.3303125 0.7115625 2.6875 1.4375 C7.62466817 3.90689258 7.62466817 3.90689258 12.9140625 3.38671875 C14.30467537 2.83724438 15.69272672 2.28124254 17.078125 1.71875 C19.58812676 0.78005016 21.35759275 0.48619859 24 1 C26.3125 3 26.3125 3 28 5 C27.67 5.66 27.34 6.32 27 7 C26.01 6.67 25.02 6.34 24 6 C24 5.34 24 4.68 24 4 C19.65815798 4.18464366 19.65815798 4.18464366 16 6 C13.87991884 6.17813354 11.75208388 6.26789228 9.625 6.3125 C7.88089844 6.36857422 7.88089844 6.36857422 6.1015625 6.42578125 C3 6 3 6 1.0859375 4.10546875 C0 2 0 2 0 0 Z " fill="#CC8083" transform="translate(1405,429)"/>
<path d="M0 0 C0.33 0 0.66 0 1 0 C0.73057018 6.06217098 0.11023401 10.25742229 -4 15 C-6.57498832 17.14172068 -9.23684026 19.10871105 -12 21 C-12 20.34 -12 19.68 -12 19 C-12.99 18.34 -13.98 17.68 -15 17 C-14.46890625 16.69707031 -13.9378125 16.39414062 -13.390625 16.08203125 C-6.30488872 11.87972415 -2.98343588 7.6077615 0 0 Z " fill="#84B4DB" transform="translate(543,416)"/>
<path d="M0 0 C0 3.52232517 -0.56731481 4.05751328 -2.8125 6.625 C-3.33457031 7.23601562 -3.85664063 7.84703125 -4.39453125 8.4765625 C-7.26222481 11.19773157 -10.13566705 11.1203899 -13.88671875 11.09765625 C-14.82451172 11.09443359 -15.76230469 11.09121094 -16.72851562 11.08789062 C-17.70498047 11.07951172 -18.68144531 11.07113281 -19.6875 11.0625 C-21.16959961 11.05573242 -21.16959961 11.05573242 -22.68164062 11.04882812 C-25.12115474 11.03704303 -27.56054689 11.02059011 -30 11 C-30 10.67 -30 10.34 -30 10 C-28.69804687 9.89042969 -27.39609375 9.78085937 -26.0546875 9.66796875 C-24.32806654 9.50844399 -22.60150709 9.34825249 -20.875 9.1875 C-20.0190625 9.11724609 -19.163125 9.04699219 -18.28125 8.97460938 C-10.31546518 8.20866853 -5.50563312 5.99142427 0 0 Z " fill="#ABCDE7" transform="translate(354,419)"/>
<path d="M0 0 C2 3.75 2 3.75 2 6 C-1.50776784 7.60355101 -4.14354879 8.22036864 -8 8 C-8 8.66 -8 9.32 -8 10 C-13.70690634 10.99250545 -19.21408489 11.10477512 -25 11 C-21.25521202 8.75702803 -17.23493687 8.12685473 -13 7.375 C-12.2884375 7.2409375 -11.576875 7.106875 -10.84375 6.96875 C-7.48370201 6.35441287 -4.42864709 6 -1 6 C-0.67 4.02 -0.34 2.04 0 0 Z " fill="#9EC1DD" transform="translate(890,304)"/>
<path d="M0 0 C0.66 0.33 1.32 0.66 2 1 C1.67 1.99 1.34 2.98 1 4 C0.87625 4.61875 0.7525 5.2375 0.625 5.875 C0 8 0 8 -1.4375 10.25 C-3.44182735 13.77761614 -4.12810562 17.04294091 -5 21 C-5.66 21 -6.32 21 -7 21 C-4.72900763 4.72900763 -4.72900763 4.72900763 0 0 Z " fill="#D28888" transform="translate(1371,265)"/>
<path d="M0 0 C-3.73879202 3.25819115 -7.37621011 5.26096171 -11.9375 7.1875 C-13.71447266 7.95126953 -13.71447266 7.95126953 -15.52734375 8.73046875 C-18.72649109 9.9000108 -21.63070853 10.57305162 -25 11 C-24.34 10.34 -23.68 9.68 -23 9 C-22.01 9 -21.02 9 -20 9 C-20 8.34 -20 7.68 -20 7 C-16.62902617 5.50178941 -14.79557881 5 -11 5 C-11 4.34 -11 3.68 -11 3 C-7.14243493 0.84694043 -4.44870215 -0.39253254 0 0 Z " fill="#9DC3E0" transform="translate(564,458)"/>
<path d="M0 0 C2.99693138 0.99897713 4.02709413 1.65130253 6 4 C6 4.66 6 5.32 6 6 C6.99 6.33 7.98 6.66 9 7 C10.68711423 8.6459651 12.3545622 10.31237149 14 12 C14.66 12.33 15.32 12.66 16 13 C16 13.66 16 14.32 16 15 C9.39116922 13.38809005 4.92854804 9.73729399 1.0625 4.25 C0 2 0 2 0 0 Z " fill="#92BADA" transform="translate(622,278)"/>
<path d="M0 0 C3.80585868 3.11388437 4.76376474 6.72579491 5.26171875 11.51953125 C5.53495506 18.2562196 4.25349061 23.11757279 1 29 C0.67 27.68 0.34 26.36 0 25 C0.66 25 1.32 25 2 25 C2 18.4 2 11.8 2 5 C1.34 5 0.68 5 0 5 C0 3.35 0 1.7 0 0 Z " fill="#A5C8E1" transform="translate(672,252)"/>
<path d="M0 0 C4.0067695 2.17510344 6.82720612 4.74788628 10 8 C10.9075 8.680625 11.815 9.36125 12.75 10.0625 C15.10171348 12.08758661 15.67587628 12.97484531 16 16 C9.57708827 13.08961812 3.96740237 7.78579512 0 2 C0 1.34 0 0.68 0 0 Z " fill="#9DC1DE" transform="translate(450,440)"/>
<path d="M0 0 C0.33 0 0.66 0 1 0 C0.9278125 0.65742188 0.855625 1.31484375 0.78125 1.9921875 C-0.5178017 15.30746739 -0.46039219 28.6999997 1 42 C0.01 41.67 -0.98 41.34 -2 41 C-2.04998439 36.76824446 -2.08599164 32.53665204 -2.10986328 28.3046875 C-2.11983031 26.86943564 -2.13340887 25.43420358 -2.15087891 23.99902344 C-2.24802505 15.80446078 -2.13369501 7.98391629 0 0 Z " fill="#B3D4ED" transform="translate(1183,368)"/>
<path d="M0 0 C0.33 0.66 0.66 1.32 1 2 C0.01 3.485 0.01 3.485 -1 5 C-1.66 5 -2.32 5 -3 5 C-3.268125 5.556875 -3.53625 6.11375 -3.8125 6.6875 C-5.10128679 9.1972427 -6.53946726 11.5869459 -8 14 C-8.33 14.66 -8.66 15.32 -9 16 C-9.66 16 -10.32 16 -11 16 C-11.80078125 14.35546875 -11.80078125 14.35546875 -12 12 C-10.45774803 9.89096298 -8.9970232 8.16120097 -7.1875 6.3125 C-6.72279297 5.81427734 -6.25808594 5.31605469 -5.77929688 4.80273438 C-2.34706805 1.17353403 -2.34706805 1.17353403 0 0 Z " fill="#86B2D9" transform="translate(1159,325)"/>
<path d="M0 0 C0 0.66 0 1.32 0 2 C-1.74477149 3.37422638 -3.54715813 4.67586622 -5.375 5.9375 C-9.71611502 8.93506278 -9.71611502 8.93506278 -13 13 C-14.32 13 -15.64 13 -17 13 C-15.47554249 8.96200244 -12.97651424 7.25063433 -9.5 4.8125 C-8.03046875 3.77029297 -8.03046875 3.77029297 -6.53125 2.70703125 C-2.51716247 0 -2.51716247 0 0 0 Z " fill="#9DC2E0" transform="translate(475,317)"/>
<path d="M0 0 C0.66 0.66 1.32 1.32 2 2 C1.6875 3.875 1.6875 3.875 1 6 C0.7215625 7.11375 0.7215625 7.11375 0.4375 8.25 C0.293125 8.8275 0.14875 9.405 0 10 C-0.66 10 -1.32 10 -2 10 C-2 12.31 -2 14.62 -2 17 C-2.99 17.33 -3.98 17.66 -5 18 C-5.33 18.66 -5.66 19.32 -6 20 C-5.57534294 12.63927766 -3.01651083 6.67862176 0 0 Z " fill="#9BC0DE" transform="translate(443,348)"/>
<path d="M0 0 C4.01133215 0.60534649 7.0684076 1.8774394 10.625 3.8125 C11.56601562 4.31394531 12.50703125 4.81539063 13.4765625 5.33203125 C15.99447763 6.99634977 17.37432001 8.48510579 19 11 C16.0625 10.1875 16.0625 10.1875 13 9 C12.67 8.01 12.34 7.02 12 6 C11.01 6.33 10.02 6.66 9 7 C6.3125 6.5625 6.3125 6.5625 4 6 C3.67 5.01 3.34 4.02 3 3 C2.01 2.67 1.02 2.34 0 2 C0 1.34 0 0.68 0 0 Z " fill="#9CC1DD" transform="translate(806,310)"/>
<path d="M0 0 C2.74084921 2.36709704 3.7367158 4.64405806 5 8 C3.21475351 9.19713017 1.4215972 10.38247279 -0.375 11.5625 C-1.87160156 12.55443359 -1.87160156 12.55443359 -3.3984375 13.56640625 C-4.25695313 14.03949219 -5.11546875 14.51257813 -6 15 C-6.66 14.67 -7.32 14.34 -8 14 C-7.67 13.01 -7.34 12.02 -7 11 C-3.535 10.505 -3.535 10.505 0 10 C-0.33 9.01 -0.66 8.02 -1 7 C-0.72230092 4.6593935 -0.39460023 2.32375692 0 0 Z " fill="#D28A8B" transform="translate(1442,450)"/>
<path d="M0 0 C1.32 0.66 2.64 1.32 4 2 C2.61019248 3.13243576 1.21285323 4.25563119 -0.1875 5.375 C-0.96480469 6.00148438 -1.74210937 6.62796875 -2.54296875 7.2734375 C-4.96879382 8.97807134 -7.21309045 10.01987906 -10 11 C-10 10.34 -10 9.68 -10 9 C-10.66 8.67 -11.32 8.34 -12 8 C-11.05125 7.7525 -10.1025 7.505 -9.125 7.25 C-5.91306809 6.3142923 -5.91306809 6.3142923 -4.625 3.875 C-4.41875 3.25625 -4.2125 2.6375 -4 2 C-2.68 2.33 -1.36 2.66 0 3 C0 2.01 0 1.02 0 0 Z " fill="#88B6DB" transform="translate(1083,452)"/>
<path d="M0 0 C-1.40071493 5.29158974 -4.85487245 7.77478044 -9 11 C-8.10164835 3.21428571 -8.10164835 3.21428571 -6 0 C-3.50907189 -1.24546405 -2.58919267 -0.7767578 0 0 Z " fill="#87B7DD" transform="translate(1096,442)"/>
<path d="M0 0 C1 3 1 3 -0.14453125 5.6640625 C-0.97017578 7.12972656 -0.97017578 7.12972656 -1.8125 8.625 C-2.62654297 10.09839844 -2.62654297 10.09839844 -3.45703125 11.6015625 C-5 14 -5 14 -7 15 C-7.125 7.25 -7.125 7.25 -6 5 C-5.01 4.67 -4.02 4.34 -3 4 C-2.67 3.01 -2.34 2.02 -2 1 C-1.34 0.67 -0.68 0.34 0 0 Z " fill="#7AADDA" transform="translate(1103,427)"/>
<path d="M0 0 C1.76462683 3.08809695 2 4.23312136 2 8 C1.34 8 0.68 8 0 8 C0.01160156 8.90621094 0.02320313 9.81242187 0.03515625 10.74609375 C0.08575437 17.5768401 0.12477648 24.25134111 -1 31 C-1.66 31.66 -2.32 32.32 -3 33 C-2.69208611 28.62466461 -2.37786167 24.24980438 -2.0625 19.875 C-1.97548828 18.6375 -1.88847656 17.4 -1.79882812 16.125 C-1.71181641 14.92617188 -1.62480469 13.72734375 -1.53515625 12.4921875 C-1.456604 11.39245605 -1.37805176 10.29272461 -1.29711914 9.15966797 C-1.00659192 6.0701008 -0.54909911 3.05323244 0 0 Z " fill="#B4D2E9" transform="translate(1002,434)"/>
<path d="M0 0 C0.33 0 0.66 0 1 0 C1.04898437 0.86882812 1.09796875 1.73765625 1.1484375 2.6328125 C1.22320313 3.78523438 1.29796875 4.93765625 1.375 6.125 C1.44460938 7.26195312 1.51421875 8.39890625 1.5859375 9.5703125 C1.99549137 12.96265497 2.90253826 15.77841875 4 19 C4.22663986 21.71061275 4.0940868 24.27148292 4 27 C-0.6923752 21.49155954 -0.13312161 15.57039037 -0.0625 8.6875 C-0.05798828 7.85154297 -0.05347656 7.01558594 -0.04882812 6.15429688 C-0.03710548 4.10283351 -0.01917203 2.05140727 0 0 Z " fill="#CF7F80" transform="translate(1356,420)"/>
<path d="M0 0 C2.70748323 2.40665176 4.84429936 5.01793002 6.875 8 C7.55175781 8.99 7.55175781 8.99 8.2421875 10 C9 12 9 12 8.265625 14.203125 C7 16 7 16 4.875 16.75 C3.946875 16.87375 3.946875 16.87375 3 17 C3 16.01 3 15.02 3 14 C4.32 14 5.64 14 7 14 C7 13.01 7 12.02 7 11 C5.68 10.67 4.36 10.34 3 10 C3 8.68 3 7.36 3 6 C2.34 6 1.68 6 1 6 C0.67 4.02 0.34 2.04 0 0 Z " fill="#A7C6DF" transform="translate(969,444)"/>
<path d="M0 0 C0.99 0 1.98 0 3 0 C1.66531206 3.45412296 0.1741337 6.7601692 -1.5 10.0625 C-1.9228125 10.89910156 -2.345625 11.73570312 -2.78125 12.59765625 C-3.1834375 13.39042969 -3.585625 14.18320312 -4 15 C-4.66756863 16.33288197 -5.3345659 17.66605109 -6 19 C-6 16.36 -6 13.72 -6 11 C-5.34 11 -4.68 11 -4 11 C-4 9.02 -4 7.04 -4 5 C-2.68 4.34 -1.36 3.68 0 3 C0 2.01 0 1.02 0 0 Z " fill="#95BEDF" transform="translate(1190,349)"/>
<path d="M0 0 C2.4389764 0.28199727 4.87570933 0.57515615 7.3125 0.875 C8.00279297 0.95363281 8.69308594 1.03226562 9.40429688 1.11328125 C12.95639471 1.55943847 14.9697029 1.97980193 18 4 C15.37493198 4.02690844 12.75013827 4.04679404 10.125 4.0625 C9.37863281 4.07087891 8.63226562 4.07925781 7.86328125 4.08789062 C2.2265625 4.11328125 2.2265625 4.11328125 0 3 C0 2.01 0 1.02 0 0 Z " fill="#82B0D5" transform="translate(1000,465)"/>
<path d="M0 0 C12.2951235 3.0360988 12.2951235 3.0360988 16 6 C16.33 6.99 16.66 7.98 17 9 C10.75029999 7.22057153 5.21510863 4.95040926 0 1 C0 0.67 0 0.34 0 0 Z " fill="#98C0E0" transform="translate(1165,457)"/>
<path d="M0 0 C0.33 0 0.66 0 1 0 C1.92744319 6.22890897 2.20589204 10.96282178 0 17 C-0.556875 18.7015625 -0.556875 18.7015625 -1.125 20.4375 C-1.41375 21.283125 -1.7025 22.12875 -2 23 C-2.66 23 -3.32 23 -4 23 C-4.33 23.99 -4.66 24.98 -5 26 C-6 24 -6 24 -5.0625 20.875 C-4.711875 19.92625 -4.36125 18.9775 -4 18 C-3.34 18 -2.68 18 -2 18 C-1.34 12.06 -0.68 6.12 0 0 Z " fill="#8BB4D6" transform="translate(1245,396)"/>
<path d="M0 0 C0.99 0.495 0.99 0.495 2 1 C1.98952637 1.59538574 1.97905273 2.19077148 1.96826172 2.80419922 C1.92676051 5.49442343 1.90069296 8.18458037 1.875 10.875 C1.85824219 11.81214844 1.84148437 12.74929688 1.82421875 13.71484375 C1.81777344 14.61074219 1.81132813 15.50664062 1.8046875 16.4296875 C1.79421387 17.25710449 1.78374023 18.08452148 1.77294922 18.93701172 C1.80697743 21.22398157 1.80697743 21.22398157 4 23 C4 24.32 4 25.64 4 27 C2.68 26.34 1.36 25.68 0 25 C0 16.75 0 8.5 0 0 Z " fill="#C16669" transform="translate(1334,315)"/>
<path d="M0 0 C0.33 0 0.66 0 1 0 C1.10883596 2.37625177 1.18766696 4.74743976 1.25 7.125 C1.28351562 7.79015625 1.31703125 8.4553125 1.3515625 9.140625 C1.45638928 14.48679071 0.19826227 16.95810162 -3 21 C-4.18597748 17.44206755 -3.69776079 16.27337948 -2.625 12.75 C-1.38196718 8.47601044 -0.49094863 4.41853764 0 0 Z " fill="#92BBDC" transform="translate(548,395)"/>
<path d="M0 0 C1.4540625 0.0309375 1.4540625 0.0309375 2.9375 0.0625 C-0.62028921 3.62028921 -5.70959495 4.01418196 -10.5625 4.1875 C-11.3875 4.14625 -12.2125 4.105 -13.0625 4.0625 C-13.0625 3.0725 -13.0625 2.0825 -13.0625 1.0625 C-12.42441406 1.07410156 -11.78632812 1.08570313 -11.12890625 1.09765625 C-10.30261719 1.10667969 -9.47632813 1.11570312 -8.625 1.125 C-7.38943359 1.14240234 -7.38943359 1.14240234 -6.12890625 1.16015625 C-3.22115264 1.02273878 -3.2777182 0.06689221 0 0 Z " fill="#91BDDD" transform="translate(1063.0625,465.9375)"/>
<path d="M0 0 C0.66 0 1.32 0 2 0 C2 1.32 2 2.64 2 4 C2.66 4 3.32 4 4 4 C6.29612756 13.41002278 6.29612756 13.41002278 6 18 C4.11198026 15.16797039 3.03898349 12.73974381 1.875 9.5625 C1.34519531 8.14130859 1.34519531 8.14130859 0.8046875 6.69140625 C0 4 0 4 0 0 Z " fill="#96BEDE" transform="translate(1135,412)"/>
<path d="M0 0 C-1.216875 -0.04125 -2.43375 -0.0825 -3.6875 -0.125 C-9.88783709 -0.14480938 -15.906352 0.94514903 -22 2 C-22 1.01 -22 0.02 -22 -1 C-5.24474773 -2.92273387 -5.24474773 -2.92273387 0 0 Z " fill="#A7CBE8" transform="translate(524,344)"/>
<path d="M0 0 C4.91317487 4.09431239 7.31732078 8.82653402 9 15 C8.67 15.66 8.34 16.32 8 17 C6 15 6 15 5 11.9375 C4.34247444 8.87849194 4.34247444 8.87849194 2 8 C2 6.68 2 5.36 2 4 C1.34 4 0.68 4 0 4 C0 2.68 0 1.36 0 0 Z " fill="#98BEDB" transform="translate(830,327)"/>
<path d="M0 0 C1.3303125 0.7115625 1.3303125 0.7115625 2.6875 1.4375 C7.57041881 3.74076359 10.75022263 4.34994275 16 3 C14.2724894 5.14234045 13.37563053 5.93142272 10.625 6.43359375 C9.75875 6.43488281 8.8925 6.43617188 8 6.4375 C7.13375 6.45683594 6.2675 6.47617187 5.375 6.49609375 C3 6 3 6 1.1875 4.09765625 C0 2 0 2 0 0 Z " fill="#D89899" transform="translate(1405,429)"/>
<path d="M0 0 C0 0.33 0 0.66 0 1 C-3.3 1 -6.6 1 -10 1 C-10 1.66 -10 2.32 -10 3 C-12.31 3.33 -14.62 3.66 -17 4 C-16.67 3.01 -16.34 2.02 -16 1 C-10.42250058 -1.32395809 -5.88266443 -0.98711376 0 0 Z " fill="#A5C7E2" transform="translate(324,428)"/>
<path d="M0 0 C0.33 0 0.66 0 1 0 C1.48736475 6.70126536 0.07708804 11.06561592 -3 17 C-3.66 16.67 -4.32 16.34 -5 16 C-4.80664062 15.43152344 -4.61328125 14.86304688 -4.4140625 14.27734375 C-2.81863577 9.54635062 -1.33099414 4.81205575 0 0 Z " fill="#87B4D7" transform="translate(1058,402)"/>
<path d="M0 0 C0.33 0 0.66 0 1 0 C1.0271045 3.04172719 1.04688964 6.08320997 1.0625 9.125 C1.07087891 9.9809375 1.07925781 10.836875 1.08789062 11.71875 C1.10538306 16.26678411 0.93192358 20.52383164 0 25 C-0.66 24.67 -1.32 24.34 -2 24 C-2.04254356 22.00045254 -2.04080783 19.99958364 -2 18 C-1.67 17.67 -1.34 17.34 -1 17 C-0.76298761 14.14122091 -0.57780818 11.30116703 -0.4375 8.4375 C-0.39431641 7.63119141 -0.35113281 6.82488281 -0.30664062 5.99414062 C-0.20024738 3.99631195 -0.09959112 1.9981793 0 0 Z " fill="#93BDE0" transform="translate(1109,389)"/>
<path d="M0 0 C5.75 1.625 5.75 1.625 8 5 C8 5.99 8 6.98 8 8 C8.66 8 9.32 8 10 8 C10 9.98 10 11.96 10 14 C7.82397707 11.82397707 6.57282042 9.49222992 5.0859375 6.8203125 C3.6150124 4.35466108 1.85458916 2.18576579 0 0 Z " fill="#A9C9E2" transform="translate(534,348)"/>
<path d="M0 0 C0.33 0 0.66 0 1 0 C0.67 5.94 0.34 11.88 0 18 C-0.99 18 -1.98 18 -3 18 C-2.41509121 11.85845775 -1.45933748 5.99320151 0 0 Z " fill="#D89393" transform="translate(1363,286)"/>
<path d="M0 0 C-1.89385437 0.50744423 -3.79018666 1.00564574 -5.6875 1.5 C-6.74324219 1.7784375 -7.79898437 2.056875 -8.88671875 2.34375 C-11.71142672 2.9391715 -14.12836708 3.12786492 -17 3 C-16 1 -16 1 -13.41796875 0.078125 C-12.35191406 -0.19515625 -11.28585937 -0.4684375 -10.1875 -0.75 C-9.12917969 -1.03359375 -8.07085937 -1.3171875 -6.98046875 -1.609375 C-3.79041672 -2.02746832 -2.62748534 -1.75589819 0 0 Z " fill="#A3C6E1" transform="translate(366,468)"/>
<path d="M0 0 C0 0.33 0 0.66 0 1 C-3.63 1 -7.26 1 -11 1 C-11 1.66 -11 2.32 -11 3 C-14.465 4.485 -14.465 4.485 -18 6 C-16.63016497 2.83884224 -16.0109362 2.0072908 -13 0 C-8.48060265 -1.42038202 -4.59749016 -0.70131206 0 0 Z " fill="#A1C5E1" transform="translate(1021,428)"/>
<path d="M0 0 C0.79921875 0.00902344 1.5984375 0.01804687 2.421875 0.02734375 C3.02515625 0.03894531 3.6284375 0.05054688 4.25 0.0625 C3.92 1.0525 3.59 2.0425 3.25 3.0625 C1.8129191 3.11672947 0.37524538 3.15539723 -1.0625 3.1875 C-1.86300781 3.21070313 -2.66351563 3.23390625 -3.48828125 3.2578125 C-5.75 3.0625 -5.75 3.0625 -8.75 1.0625 C-5.75519083 0.1901588 -3.11424089 -0.04579766 0 0 Z " fill="#6CA4D1" transform="translate(500.75,465.9375)"/>
<path d="M0 0 C0.66 0 1.32 0 2 0 C2.33 0.99 2.66 1.98 3 3 C-1.64203897 5.53309233 -5.65155992 7.46515599 -11 8 C-11 7.34 -11 6.68 -11 6 C-9.35 6 -7.7 6 -6 6 C-6 5.34 -6 4.68 -6 4 C-5.01 4 -4.02 4 -3 4 C-3 3.34 -3 2.68 -3 2 C-2.01 2 -1.02 2 0 2 C0 1.34 0 0.68 0 0 Z " fill="#9BC3E2" transform="translate(1253,459)"/>
<path d="M0 0 C4.08963819 2.28538605 7.46362104 4.95706926 11 8 C8 9 8 9 5.8125 8.0625 C5.214375 7.711875 4.61625 7.36125 4 7 C4 6.34 4 5.68 4 5 C3.01 4.67 2.02 4.34 1 4 C0.3125 1.9375 0.3125 1.9375 0 0 Z " fill="#9CC3E1" transform="translate(1261,320)"/>
<path d="M0 0 C2.5 1.8125 2.5 1.8125 5 4 C5 4.99 5 5.98 5 7 C5.99 7.33 6.98 7.66 8 8 C7.34 9.32 6.68 10.64 6 12 C4.99157547 10.56839732 3.99352109 9.12948547 3 7.6875 C2.1646875 6.48673828 2.1646875 6.48673828 1.3125 5.26171875 C0 3 0 3 0 0 Z " fill="#9FC6E3" transform="translate(443,428)"/>
<path d="M0 0 C0.66 0 1.32 0 2 0 C2.69685498 1.6210103 3.38222861 3.24696066 4.0625 4.875 C4.63677734 6.23238281 4.63677734 6.23238281 5.22265625 7.6171875 C6 10 6 10 5 12 C4.34 11.67 3.68 11.34 3 11 C3 9.68 3 8.36 3 7 C2.34 7 1.68 7 1 7 C0.67 4.69 0.34 2.38 0 0 Z " fill="#90BCDB" transform="translate(588,350)"/>
<path d="M0 0 C0 0.99 0 1.98 0 3 C-2.475 2.01 -2.475 2.01 -5 1 C-5 1.66 -5 2.32 -5 3 C-6.65 3 -8.3 3 -10 3 C-9.1875 1.0625 -9.1875 1.0625 -8 -1 C-4.37673261 -2.2077558 -3.35853631 -1.54311128 0 0 Z " fill="#83B5DE" transform="translate(738,313)"/>
<path d="M0 0 C0 0.99 0 1.98 0 3 C1.65 3 3.3 3 5 3 C5.33 4.32 5.66 5.64 6 7 C1.56909529 5.79157144 -0.98112756 4.48331435 -4 1 C-2 0 -2 0 0 0 Z " fill="#8CB6DB" transform="translate(906,460)"/>
<path d="M0 0 C2.91488977 2.6234008 4.88503898 5.71816394 7 9 C6.67 9.66 6.34 10.32 6 11 C0.25791855 6.60180995 0.25791855 6.60180995 -0.9375 3.8125 C-1 2 -1 2 0 0 Z " fill="#D2898B" transform="translate(1435,439)"/>
<path d="M0 0 C0.33 0 0.66 0 1 0 C1.125 2.875 1.125 2.875 1 6 C-1.6855594 8.6855594 -4.37621328 9.06049974 -8 10 C-7.59007812 9.52949219 -7.18015625 9.05898438 -6.7578125 8.57421875 C-6.21898437 7.95160156 -5.68015625 7.32898438 -5.125 6.6875 C-4.59132813 6.07261719 -4.05765625 5.45773437 -3.5078125 4.82421875 C-1.8359553 2.86501788 -1.8359553 2.86501788 0 0 Z " fill="#99C1DF" transform="translate(1238,422)"/>
<path d="M0 0 C-3.62281613 1.49174782 -7.28417146 2.76139049 -11 4 C-11.99 4.495 -11.99 4.495 -13 5 C-15.125 4.0625 -15.125 4.0625 -17 3 C-14.92085336 2.29994051 -12.83648414 1.61537756 -10.75 0.9375 C-9.58984375 0.55464844 -8.4296875 0.17179687 -7.234375 -0.22265625 C-4.19922915 -0.95211763 -2.84296787 -1.11889082 0 0 Z " fill="#A4C9E5" transform="translate(779,309)"/>
<path d="M0 0 C3.19199167 2.41556126 5.74716687 4.68003538 8 8 C7.67 8.66 7.34 9.32 7 10 C6.01 10.33 5.02 10.66 4 11 C3.52014033 9.72942818 3.0411407 8.45853152 2.5625 7.1875 C2.16224609 6.12595703 2.16224609 6.12595703 1.75390625 5.04296875 C1.13774814 3.37327604 0.56280765 1.68842296 0 0 Z " fill="#9CC6E4" transform="translate(1272,329)"/>
<path d="M0 0 C0 0.33 0 0.66 0 1 C-1.28197266 1.18175781 -1.28197266 1.18175781 -2.58984375 1.3671875 C-3.69457031 1.53476563 -4.79929687 1.70234375 -5.9375 1.875 C-7.03964844 2.03742188 -8.14179687 2.19984375 -9.27734375 2.3671875 C-10.62505859 2.68042969 -10.62505859 2.68042969 -12 3 C-12.33 3.66 -12.66 4.32 -13 5 C-14.98 5 -16.96 5 -19 5 C-14.15468302 -0.92205408 -6.97142016 -0.24799518 0 0 Z " fill="#C7E0F2" transform="translate(652,238)"/>
<path d="M0 0 C3.39417765 3.12621626 5.6062718 5.56541027 7 10 C4.625 9.5 4.625 9.5 2 8 C0.91758097 5.33474712 0.50727893 2.8592085 0 0 Z " fill="#9CC4E1" transform="translate(579,334)"/>
<path d="M0 0 C0 4.61590466 -1.44028719 6.4136342 -4.625 9.75 C-5.40875 10.4925 -6.1925 11.235 -7 12 C-7 8.41634204 -6.22556909 7.63354929 -4.0625 4.875 C-3.51722656 4.17117188 -2.97195313 3.46734375 -2.41015625 2.7421875 C-1 1 -1 1 0 0 Z " fill="#AECEE5" transform="translate(455,331)"/>
<path d="M0 0 C1.32 0.33 2.64 0.66 4 1 C2.37660195 2.70884005 0.70680947 4.37446717 -1 6 C-1.66 6 -2.32 6 -3 6 C-3 6.99 -3 7.98 -3 9 C-3.66 9 -4.32 9 -5 9 C-3.7508258 5.54074837 -2.32472205 2.85306797 0 0 Z " fill="#93BCDB" transform="translate(627,246)"/>
<path d="M0 0 C4.51478398 0.53115106 7.34666857 2.36620292 11 5 C10.34 5.66 9.68 6.32 9 7 C9 6.34 9 5.68 9 5 C6.03 4.67 3.06 4.34 0 4 C0 2.66666667 0 1.33333333 0 0 Z " fill="#A0C4E0" transform="translate(656,240)"/>
<path d="M0 0 C1.65 0.99 3.3 1.98 5 3 C3.35 4.65 1.7 6.3 0 8 C-2 7 -2 7 -3 5 C-2.01 5 -1.02 5 0 5 C0 3.35 0 1.7 0 0 Z " fill="#82B6DE" transform="translate(384,451)"/>
<path d="M0 0 C4.29957824 0.47773092 6.21719982 1.70186645 9 5 C9 5.33 9 5.66 9 6 C7.35 6 5.7 6 4 6 C3.67 5.01 3.34 4.02 3 3 C2.01 2.67 1.02 2.34 0 2 C0 1.34 0 0.68 0 0 Z " fill="#87B3D9" transform="translate(806,310)"/>
<path d="M0 0 C0.99 0.33 1.98 0.66 3 1 C-0.07999946 4.67230705 -2.2482602 5.56802365 -7 6 C-7 5.34 -7 4.68 -7 4 C-5.68 4 -4.36 4 -3 4 C-2.67 3.01 -2.34 2.02 -2 1 C-1.34 0.67 -0.68 0.34 0 0 Z " fill="#9BBEDC" transform="translate(663,287)"/>
<path d="M0 0 C3.3 0 6.6 0 10 0 C5.12206417 3.25195722 0.77608621 3.11325659 -5 3 C-5 2.67 -5 2.34 -5 2 C-3.35 2 -1.7 2 0 2 C0 1.34 0 0.68 0 0 Z " fill="#D28B8A" transform="translate(1418,467)"/>
<path d="M0 0 C1 3 1 3 0.22265625 5.04296875 C-0.16019531 5.75066406 -0.54304688 6.45835937 -0.9375 7.1875 C-1.31777344 7.90292969 -1.69804688 8.61835938 -2.08984375 9.35546875 C-2.54037109 10.16951172 -2.54037109 10.16951172 -3 11 C-3.33 11 -3.66 11 -4 11 C-4.17754126 7.09409237 -4.20731737 4.31097606 -2 1 C-1.34 0.67 -0.68 0.34 0 0 Z " fill="#9DC3E1" transform="translate(1103,427)"/>
<path d="M0 0 C2.125 0.375 2.125 0.375 4 1 C2.25 3.5 2.25 3.5 0 6 C-1.32 6 -2.64 6 -4 6 C-2.84826645 3.53199953 -1.95216435 1.95216435 0 0 Z " fill="#93BCDC" transform="translate(462,324)"/>
<path d="M0 0 C-1.61992165 0.86375896 -3.24611861 1.71575854 -4.875 2.5625 C-6.23238281 3.27599609 -6.23238281 3.27599609 -7.6171875 4.00390625 C-8.40351562 4.33261719 -9.18984375 4.66132813 -10 5 C-10.66 4.67 -11.32 4.34 -12 4 C-11.67 3.34 -11.34 2.68 -11 2 C-9.35 2 -7.7 2 -6 2 C-6 1.34 -6 0.68 -6 0 C-3.50907189 -1.24546405 -2.58919267 -0.7767578 0 0 Z " fill="#A3C9E2" transform="translate(972,462)"/>
<path d="M0 0 C0.495 0.268125 0.99 0.53625 1.5 0.8125 C4.9236946 2.43875493 8.44132285 3.69515171 12 5 C12 5.33 12 5.66 12 6 C8.8125 6.3125 8.8125 6.3125 5 6 C2.0625 3.5625 2.0625 3.5625 0 1 C0 0.67 0 0.34 0 0 Z " fill="#A1C7E3" transform="translate(496,429)"/>
<path d="M0 0 C0.33 0 0.66 0 1 0 C0.67 2.97 0.34 5.94 0 9 C-1.65 9.66 -3.3 10.32 -5 11 C-3.35 7.37 -1.7 3.74 0 0 Z " fill="#A2C8E4" transform="translate(543,416)"/>
<path d="M0 0 C2 3.75 2 3.75 2 6 C-2.49656104 8.24828052 -6.07872966 8.16682272 -11 8 C-11 7.67 -11 7.34 -11 7 C-7.7 6.67 -4.4 6.34 -1 6 C-0.67 4.02 -0.34 2.04 0 0 Z " fill="#B3D3EB" transform="translate(890,304)"/>
<path d="M0 0 C0 0.99 0 1.98 0 3 C-0.66 3 -1.32 3 -2 3 C-2 2.34 -2 1.68 -2 1 C-2.7425 1.350625 -3.485 1.70125 -4.25 2.0625 C-7.1322726 3.04509293 -8.21176345 3.0326802 -11 2 C-7.49890112 -1.50109888 -4.63591413 -1.15897853 0 0 Z " fill="#7BAAD3" transform="translate(640,243)"/>
<path d="M0 0 C-0.66 1.32 -1.32 2.64 -2 4 C-3.32 4 -4.64 4 -6 4 C-6 2.68 -6 1.36 -6 0 C-3.50907189 -1.24546405 -2.58919267 -0.7767578 0 0 Z " fill="#79ACD7" transform="translate(1096,442)"/>
<path d="M0 0 C2.6855594 2.6855594 3.06049974 5.37621328 4 9 C3.34 9.66 2.68 10.32 2 11 C-1.07692308 4.6 -1.07692308 4.6 -0.6875 1.5625 C-0.460625 1.046875 -0.23375 0.53125 0 0 Z " fill="#A4C7E6" transform="translate(440,417)"/>
<path d="M0 0 C1.32 0.66 2.64 1.32 4 2 C4 2.33 4 2.66 4 3 C-1.61 3 -7.22 3 -13 3 C-13 2.67 -13 2.34 -13 2 C-8.71 2 -4.42 2 0 2 C0 1.34 0 0.68 0 0 Z " fill="#6DA2CD" transform="translate(882,339)"/>
<path d="M0 0 C3.03898126 1.01299375 4.12139167 1.4951889 6 4 C6.1875 6.6875 6.1875 6.6875 6 9 C0.42857143 3.85714286 0.42857143 3.85714286 0 0 Z " fill="#99C0DE" transform="translate(622,278)"/>
<path d="M0 0 C0.99 0 1.98 0 3 0 C3.33 1.32 3.66 2.64 4 4 C0.25 7 0.25 7 -2 7 C-2 6.01 -2 5.02 -2 4 C-1.01 4 -0.02 4 1 4 C1 3.34 1 2.68 1 2 C0.34 1.67 -0.32 1.34 -1 1 C-0.67 0.67 -0.34 0.34 0 0 Z " fill="#86B5DF" transform="translate(567,450)"/>
<path d="M0 0 C1.32 0.66 2.64 1.32 4 2 C4 3.65 4 5.3 4 7 C1.69 5.35 -0.62 3.7 -3 2 C-2.01 1.34 -1.02 0.68 0 0 Z " fill="#9EC3DF" transform="translate(787,345)"/>
<path d="M0 0 C0 3.32058331 -0.43061972 5.08543662 -2 8 C-4.625 9.3125 -4.625 9.3125 -7 10 C-5.33248852 6.05860922 -2.77289351 3.2107188 0 0 Z " fill="#B2D0EA" transform="translate(1154,329)"/>
<path d="M0 0 C3.77545388 1.09068668 6.47043472 1.9083091 9 5 C5.625 4.75 5.625 4.75 2 4 C0.5625 1.9375 0.5625 1.9375 0 0 Z " fill="#A2C5E0" transform="translate(554,315)"/>
<path d="M0 0 C1.29315061 0.95632999 2.58446853 1.91513851 3.875 2.875 C4.59429688 3.40867187 5.31359375 3.94234375 6.0546875 4.4921875 C8 6 8 6 10 8 C7.8125 8.375 7.8125 8.375 5 8 C2.91167347 6.17130326 1.61663209 4.30947441 0 2 C0 1.34 0 0.68 0 0 Z " fill="#B7D1E7" transform="translate(1190,425)"/>
<path d="M0 0 C1.31223496 3.93670488 0.24296256 6.12488144 -1 10 C-1.66 10 -2.32 10 -3 10 C-3.36629408 5.72656908 -2.40814077 3.51187196 0 0 Z " fill="#99C3E2" transform="translate(410,413)"/>
<path d="M0 0 C0.66 0.66 1.32 1.32 2 2 C1.625 4.125 1.625 4.125 1 6 C0.34 6 -0.32 6 -1 6 C-1.33 6.99 -1.66 7.98 -2 9 C-3 6 -3 6 -1.5625 2.8125 C-1.046875 1.884375 -0.53125 0.95625 0 0 Z " fill="#ACCBE6" transform="translate(443,348)"/>
<path d="M0 0 C4.12751449 0.60698743 7.3321148 2.03810791 11 4 C7.23375329 5.25541557 5.62811066 4.37061958 2 3 C2 2.34 2 1.68 2 1 C1.34 0.67 0.68 0.34 0 0 Z " fill="#A0C6E2" transform="translate(1246,313)"/>
<path d="M0 0 C-1.28650706 0.69710731 -2.57940665 1.38242876 -3.875 2.0625 C-4.95394531 2.63677734 -4.95394531 2.63677734 -6.0546875 3.22265625 C-6.69664062 3.47917969 -7.33859375 3.73570312 -8 4 C-8.66 3.67 -9.32 3.34 -10 3 C-8 0 -8 0 -5.5625 -0.75 C-3 -1 -3 -1 0 0 Z " fill="#9AC0DF" transform="translate(377,463)"/>
<path d="M0 0 C0.99 0.33 1.98 0.66 3 1 C2.25 7.75 2.25 7.75 0 10 C0 6.7 0 3.4 0 0 Z " fill="#91BDE1" transform="translate(488,353)"/>
<path d="M0 0 C2.97 0.495 2.97 0.495 6 1 C6.33 1.99 6.66 2.98 7 4 C6.01 4.33 5.02 4.66 4 5 C2.64567325 3.68799596 1.31266518 2.35368596 0 1 C0 0.67 0 0.34 0 0 Z " fill="#82B0D5" transform="translate(1230,346)"/>
<path d="M0 0 C3 1 3 1 5 4 C2.07175348 4.97608217 0.04386724 5.08226668 -3 5 C-2.01 3.35 -1.02 1.7 0 0 Z " fill="#76B1E2" transform="translate(1191,345)"/>
<path d="M0 0 C1.98 0 3.96 0 6 0 C6.66 1.32 7.32 2.64 8 4 C4.31245243 3.50168276 2.39509338 2.89932357 0 0 Z " fill="#A7CCE6" transform="translate(474,461)"/>
<path d="M0 0 C0.99 0 1.98 0 3 0 C2.50168276 3.68754757 1.89932357 5.60490662 -1 8 C-1.08226668 4.95613276 -0.97608217 2.92824652 0 0 Z " fill="#99C0E0" transform="translate(587,426)"/>
<path d="M0 0 C0.33 0 0.66 0 1 0 C0.25 7.625 0.25 7.625 -2 11 C-2 8.36 -2 5.72 -2 3 C-1.34 3 -0.68 3 0 3 C0 2.01 0 1.02 0 0 Z " fill="#8AB2D4" transform="translate(1136,363)"/>
<path d="M0 0 C2.29633824 3.44450737 2.54016485 5.93812283 3 10 C0.9375 8.375 0.9375 8.375 -1 6 C-0.75 2.75 -0.75 2.75 0 0 Z " fill="#96BFDE" transform="translate(739,316)"/>
<path d="M0 0 C6.625 -0.25 6.625 -0.25 10 2 C6.42355152 3.2380014 3.66305234 2.74926071 0 2 C0 1.34 0 0.68 0 0 Z " fill="#87B3DB" transform="translate(544,313)"/>
<path d="M0 0 C-0.33 0.99 -0.66 1.98 -1 3 C-3.31 3 -5.62 3 -8 3 C-8 2.34 -8 1.68 -8 1 C-5.23735711 0.40267181 -2.83967231 0 0 0 Z " fill="#6DA1CE" transform="translate(890,311)"/>
<path d="M0 0 C2 2 2 2 2 5 C1.34 5 0.68 5 0 5 C0 6.65 0 8.3 0 10 C-0.99 10.495 -0.99 10.495 -2 11 C-1.34 7.37 -0.68 3.74 0 0 Z " fill="#B2D3EC" transform="translate(898,271)"/>
<path d="M0 0 C0.33 0 0.66 0 1 0 C1.0825 0.78375 1.165 1.5675 1.25 2.375 C1.72806339 5.14749104 1.72806339 5.14749104 4.0625 6.3125 C4.701875 6.539375 5.34125 6.76625 6 7 C6 7.33 6 7.66 6 8 C4.33388095 8.042721 2.66617115 8.04063832 1 8 C0 7 0 7 -0.0625 3.4375 C-0.041875 2.303125 -0.02125 1.16875 0 0 Z " fill="#BC6161" transform="translate(1312,507)"/>
<path d="M0 0 C2.79872437 2.52788007 4.45773019 4.20411134 5 8 C2 7 2 7 0 4 C0 2.68 0 1.36 0 0 Z " fill="#ACCDE5" transform="translate(963,434)"/>
<path d="M0 0 C0.99 0 1.98 0 3 0 C3.33 1.98 3.66 3.96 4 6 C3.01 5.67 2.02 5.34 1 5 C0.67 3.35 0.34 1.7 0 0 Z " fill="#93BAD6" transform="translate(865,336)"/>
<path d="M0 0 C3.57104439 1.87949705 5.54744301 3.17053157 7 7 C4.625 6.3125 4.625 6.3125 2 5 C0.6875 2.375 0.6875 2.375 0 0 Z " fill="#98BDDC" transform="translate(570,325)"/>
</svg>
